<svg width="164" height="172" viewBox="0 0 164 172" fill="none" xmlns="http://www.w3.org/2000/svg">
<path d="M2.24125 105.814L64.7113 17.3877C68.3413 12.2501 75.5313 10.3673 81.4313 13.007L96.3512 19.6679L99.7012 12.9408C105.251 1.80472 119.341 -2.97327 131.111 2.27781L132.701 2.98741C144.461 8.24795 149.521 21.5696 143.961 32.7057L140.611 39.4327L155.521 46.0936C161.421 48.7238 164.451 55.1765 162.571 61.0899L130.131 162.923C129.011 166.433 126.341 169.3 122.801 170.785C119.271 172.271 115.231 172.233 111.731 170.672L7.61125 124.169C4.11125 122.608 1.51125 119.684 0.481252 116.155C-0.548748 112.626 0.0912516 108.861 2.24125 105.814ZM140.351 31.0878C144.961 21.844 140.761 10.7741 130.991 6.41243L129.401 5.69337C119.631 1.33167 107.931 5.30544 103.311 14.5492L99.9613 21.2763L136.991 37.8148L140.351 31.0878ZM4.33125 115.152C5.06125 117.612 6.88125 119.656 9.32125 120.753L113.441 167.247C115.891 168.344 118.711 168.373 121.181 167.332C123.661 166.291 125.521 164.285 126.311 161.835L158.751 60.0018C160.071 55.8577 157.951 51.3541 153.821 49.5091L138.911 42.8483L135.811 49.055C137.091 50.4269 137.461 52.4422 136.581 54.202C135.391 56.5768 132.411 57.5892 129.901 56.4727C127.391 55.3563 126.321 52.5273 127.501 50.1525C128.381 48.3927 130.261 47.3803 132.201 47.4371L135.291 41.2399L98.2613 24.6919L95.2513 30.7282C96.8913 32.0907 97.4712 34.3425 96.4912 36.3105C95.3112 38.6758 92.3213 39.6882 89.8213 38.5717C87.3113 37.4553 86.2412 34.6263 87.4212 32.2515C88.1912 30.7093 89.7313 29.7537 91.4013 29.5739L94.6413 23.0834L79.7313 16.4226C75.6013 14.5776 70.5813 15.8928 68.0413 19.4881L5.56125 107.914C4.06125 110.043 3.61125 112.683 4.33125 115.152Z" fill="#BE1A20"/>
</svg>
