<svg width="35" height="32" viewBox="0 0 35 32" fill="none" xmlns="http://www.w3.org/2000/svg">
<path d="M6.79844 31.8002C5.99844 31.8002 5.39844 31.1001 5.39844 30.4001V17.9001C5.39844 17.1001 5.99844 16.5001 6.79844 16.5001C7.59844 16.5001 8.19844 17.1001 8.19844 17.9001V29.0001H26.3984V17.9001C26.3984 17.1001 27.0984 16.5001 27.7984 16.5001C28.5984 16.5001 29.2984 17.1001 29.2984 17.9001V30.4001C29.2984 31.1001 28.5984 31.8002 27.7984 31.8002H6.79844Z" fill="#AD3B41"/>
<path d="M32.9992 15.1001C32.6659 15.1001 32.3659 15.0002 32.0992 14.8002L17.2992 3.20007L2.49922 14.8002C2.23255 15.0002 1.96589 15.1001 1.69922 15.1001C1.19922 15.1001 0.799218 14.9001 0.599218 14.5001C0.299218 14.2001 0.199219 13.9001 0.299219 13.5001C0.299219 13.1001 0.499219 12.8001 0.799219 12.6001L16.3992 0.300171C16.6992 0.100171 16.9992 0.00012207 17.2992 0.00012207C17.5992 0.00012207 17.8992 0.100171 18.1992 0.300171L33.7992 12.6001C34.0992 12.8001 34.2992 13.1001 34.3992 13.5001C34.3992 13.9001 34.2992 14.2001 34.0992 14.5001C33.7992 14.9001 33.3992 15.1001 32.9992 15.1001Z" fill="#AD3B41"/>
</svg>
