<svg width="28" height="29" viewBox="0 0 28 29" fill="none" xmlns="http://www.w3.org/2000/svg">
<path fill-rule="evenodd" clip-rule="evenodd" d="M28 1.50012V27.4001C28 28.1001 27.4 28.7001 26.7 28.7001H4.89999C2.19999 28.7001 0 26.8001 0 24.4001V4.50012C0 2.10012 1.99999 0.200073 4.29999 0.200073H26.7C27.4 0.200073 28 0.800122 28 1.50012ZM25.4 20.0001H15.8C15 20.0001 14.5 19.4001 14.5 18.7001V14.9001C14.5 14.1001 15 13.6001 15.8 13.6001H25.4V8.80017H4.29999C3.69999 8.80017 3.13334 8.70012 2.60001 8.50012V24.4001C2.60001 25.3001 3.69999 26.1001 4.89999 26.1001H25.4V20.0001ZM2.60001 4.50012C2.60001 5.40012 3.39999 6.20007 4.29999 6.20007H25.4V2.80017H4.29999C3.39999 2.80017 2.60001 3.60012 2.60001 4.50012ZM25.4 16.2001H17.1V17.4001H25.4V16.2001Z" fill="#AD3B41"/>
</svg>
