<svg width="77" height="94" viewBox="0 0 77 94" fill="none" xmlns="http://www.w3.org/2000/svg">
<path d="M38.6992 80.5001C1.19923 80.5001 1.19922 66.4001 1.19922 50.0001C1.19922 44.5001 2.99922 38.9001 6.49922 33.6001C5.89922 27.5001 5.59922 21.3001 5.49922 15.2001C5.39922 13.2001 5.39922 11.2001 5.79922 9.20013C6.39922 5.50013 8.09923 2.90013 10.5992 1.70013C11.5992 1.23347 12.6992 1.00012 13.8992 1.00012C14.8325 1.00012 15.7659 1.13348 16.6992 1.40015C21.2992 2.70015 25.0992 5.90015 28.1992 8.90015C30.7992 11.4001 33.1992 13.7001 35.3992 16.1001C36.5326 15.9668 37.6326 15.9001 38.6992 15.9001C39.7659 15.9001 40.8326 15.9668 41.8992 16.1001C44.1992 13.7001 46.5992 11.4001 49.1992 8.90015C52.2992 5.90015 56.0992 2.70015 60.5992 1.40015C61.5992 1.13348 62.5659 1.00012 63.4992 1.00012C64.6992 1.00012 65.7992 1.23347 66.7992 1.70013C69.2992 2.90013 70.9992 5.50013 71.5992 9.20013C71.8992 11.2001 71.8992 13.2001 71.8992 15.2001C71.7992 21.2001 71.3992 27.4001 70.7992 33.6001C74.2992 38.9001 76.0992 44.5001 76.0992 50.0001C76.0992 66.4001 76.0992 80.5001 38.6992 80.5001Z" fill="#AD3B41"/>
<path d="M65.6994 30.6002C65.2327 30.6002 64.7993 30.4668 64.3993 30.2001C62.0993 28.6001 59.0994 26.6002 55.9994 25.0002C52.7994 23.4002 49.3993 22.0002 46.2993 21.0002C45.4993 20.7002 44.8994 20.1002 44.6994 19.3002C44.4994 18.5002 44.7993 17.7001 45.2993 17.2001C47.3993 15.1001 49.3993 13.1002 51.2993 11.3002C54.1993 8.50017 57.5994 5.60018 61.4994 4.50018C62.0994 4.30018 62.7993 4.2002 63.3993 4.2002C64.1327 4.2002 64.7993 4.33349 65.3993 4.60016C66.8993 5.30016 67.8993 7.1002 68.3993 9.7002C68.6993 11.4002 68.6994 13.2002 68.5994 15.1002C68.4994 19.5002 68.2994 24.0002 67.9994 28.4002C67.8994 29.6002 66.8994 30.6002 65.6994 30.6002Z" fill="#AD3B41"/>
<path d="M64 29.7C60.7 27.5 57.8 25.8001 55.2 24.4001C52.1 22.9001 48.7 21.4001 45.5 20.3001L44.8999 20.0001L44.7999 19.4001C44.4999 18.6001 44.6999 17.8 45.2999 17.2C47.3999 15.1 49.3999 13.1 51.2999 11.3C53.6999 9.00005 56.5999 6.40006 59.8999 5.00006C60.3666 4.80006 60.8666 4.63339 61.3999 4.50006C61.8999 4.30006 62.5 4.30005 63 4.30005C63.6 4.30005 64 4.40006 64.2 4.50006C65.5 5.10006 66.0999 7.40007 66.3999 8.70007C66.6999 10.6001 66.7 12.6 66.6 14.8C66.5 19.4 66.2999 24.1001 66 28.8001L65.7999 31.0001L64 29.7Z" fill="#AD3B41"/>
<path d="M11.7 30.6002C10.5 30.6002 9.50003 29.6002 9.40003 28.4002C9.10003 24.0002 8.90004 19.5002 8.80004 15.1002C8.70004 13.2002 8.70004 11.4002 9.00004 9.7002C9.50004 7.1002 10.5 5.30016 12 4.60016C12.6 4.33349 13.2667 4.2002 14 4.2002C14.6 4.2002 15.3 4.30018 15.9 4.50018C19.8 5.60018 23.2 8.50017 26.1 11.3002C27.8 12.9002 30 15.0001 32.1 17.2001C32.7 17.7001 32.9001 18.5002 32.7001 19.3002C32.5001 20.1002 31.9 20.7002 31.1 21.0002C28.1 22.0002 24.6 23.4002 21.4 25.0002C18.3 26.6002 15.3 28.6001 13.1 30.2001C12.7 30.4668 12.2334 30.6002 11.7 30.6002Z" fill="#AD3B41"/>
<path d="M38.6994 54.9001C36.9994 54.9001 35.6994 53.3001 34.9994 51.9001C34.6994 51.3001 34.5994 50.6001 34.7994 50.0001C35.3994 48.3001 37.2994 48.3002 38.6994 48.3002C39.9994 48.3002 41.8994 48.3001 42.4994 50.0001C42.6994 50.6001 42.6994 51.3001 42.2994 51.9001C41.5994 53.3001 40.3994 54.9001 38.6994 54.9001Z" fill="#AD3B41"/>
<path fill-rule="evenodd" clip-rule="evenodd" d="M38.6992 81.0001C0.699234 81.0001 0.699219 65.9001 0.699219 50.0001C0.699219 44.5001 2.49922 38.8001 5.99922 33.5001C5.39922 27.4001 4.99922 21.2001 4.89922 15.2001C4.89922 13.1001 4.89922 11.1001 5.19922 9.1001C5.89922 5.2001 7.69922 2.50013 10.2992 1.20013C11.3659 0.666801 12.5659 0.400146 13.8992 0.400146C14.8992 0.400146 15.8992 0.566813 16.8992 0.900146C21.4992 2.20015 25.3992 5.5001 28.5992 8.6001C31.0992 11.0001 33.3992 13.2001 35.5992 15.5001C36.6659 15.4335 37.6992 15.4001 38.6992 15.4001C39.6992 15.4001 40.6992 15.4335 41.6992 15.5001C43.8992 13.2001 46.1992 11.0001 48.7992 8.6001C51.9992 5.5001 55.7992 2.20015 60.4992 0.900146C61.4992 0.566813 62.4992 0.400146 63.4992 0.400146C64.7659 0.400146 65.9326 0.666801 66.9992 1.20013C69.6992 2.50013 71.3992 5.2001 72.0992 9.1001C72.4992 11.1001 72.4992 13.1001 72.3992 15.2001C72.2992 21.2001 71.9992 27.4001 71.3992 33.5001C74.7992 38.8001 76.6992 44.5001 76.6992 50.0001C76.6992 65.9001 76.6992 81.0001 38.6992 81.0001ZM13.8992 4.00012C13.0992 4.00012 12.4325 4.16679 11.8992 4.50012C9.89922 5.40012 9.09923 7.80013 8.79922 9.70013C8.49922 11.4001 8.49922 13.3001 8.49922 15.1001C8.69922 21.3001 8.99923 27.5002 9.59923 33.8002C9.69923 34.2002 9.59923 34.6001 9.29922 35.0001C5.99922 39.8001 4.29922 45.0001 4.29922 50.0001C4.29922 65.9001 4.29923 77.4001 38.6992 77.4001C73.0992 77.4001 73.0992 65.9001 73.0992 50.0001C73.0992 45.0001 71.2992 39.8001 67.9992 35.0001C67.7992 34.6001 67.6992 34.2002 67.6992 33.8002C68.2992 27.5002 68.6992 21.3001 68.7992 15.1001C68.8992 13.3001 68.8992 11.4001 68.5992 9.70013C68.1992 7.80013 67.3992 5.40012 65.4992 4.50012C64.8992 4.16679 64.2326 4.00012 63.4992 4.00012C62.8326 4.00012 62.1659 4.10011 61.4992 4.30011C57.5992 5.50011 54.0992 8.40013 51.2992 11.2001C48.4992 13.8001 46.0992 16.2001 43.6992 18.7001C43.3992 19.0001 42.8992 19.2001 42.3992 19.2001H42.1992C40.9992 19.0667 39.8326 19.0001 38.6992 19.0001C37.4992 19.0001 36.2992 19.0667 35.0992 19.2001H34.8992C34.3992 19.2001 33.8992 19.0001 33.5992 18.7001C31.2992 16.2001 28.7992 13.8001 26.0992 11.2001C23.1992 8.40013 19.7992 5.50011 15.8992 4.30011C15.1659 4.10011 14.4992 4.00012 13.8992 4.00012Z" fill="#AD3B41"/>
<path d="M11.4002 28.8001C11.1002 24.1001 10.9002 19.4 10.8002 14.8C10.8002 12.6 10.7002 10.6001 11.1002 8.70007C11.3002 7.40007 11.9002 5.10006 13.2002 4.50006C13.4002 4.40006 13.8002 4.30005 14.4002 4.30005C14.9002 4.30005 15.5002 4.30006 16.0002 4.50006C16.5335 4.63339 17.0335 4.80006 17.5002 5.00006C20.8002 6.40006 23.7002 9.00005 26.1002 11.3C27.8002 12.9 30.0002 15 32.1002 17.2C32.7002 17.8 32.9002 18.6001 32.7002 19.4001L32.5002 20.0001L31.9002 20.3001C28.7002 21.4001 25.4002 22.9001 22.2002 24.4001C19.6002 25.8001 16.7002 27.5 13.4002 29.7L11.6002 31.0001L11.4002 28.8001Z" fill="#AD3B41"/>
<path fill-rule="evenodd" clip-rule="evenodd" d="M65.7005 31.1001C65.1005 31.1001 64.5671 30.9334 64.1005 30.6001C61.8005 29.0001 58.9005 27.0001 55.7005 25.5001C52.6005 23.9001 49.2005 22.5001 46.1005 21.5001C45.2005 21.2001 44.5005 20.4001 44.2005 19.5001C44.0005 18.5001 44.2004 17.5002 44.9004 16.8002C47.0004 14.7002 49.1005 12.7001 51.0005 10.9001C53.9004 8.10015 57.3004 5.10012 61.3004 4.00012C62.0338 3.73346 62.7338 3.6001 63.4004 3.6001C64.2671 3.6001 65.0005 3.76676 65.6005 4.1001C67.3005 4.9001 68.4004 6.8001 68.9004 9.6001C69.2004 11.4001 69.2005 13.2001 69.2005 15.2001C69.1005 19.5001 68.9004 24.0001 68.5005 28.5001C68.4004 29.5001 67.8004 30.4002 66.9004 30.8002C66.5004 31.0002 66.1005 31.1001 65.7005 31.1001ZM48.4004 18.4001C51.3004 19.4001 54.4004 20.8001 57.4004 22.2001C60.2004 23.7001 62.9004 25.4001 65.0005 26.9001C65.3004 22.9001 65.5005 19.0001 65.6005 15.1001C65.6005 13.3001 65.6004 11.7001 65.4004 10.2001C65.0004 8.40013 64.5005 7.50015 64.0005 7.40015C64.0005 7.30015 63.8004 7.20013 63.4004 7.20013C63.0671 7.20013 62.7004 7.26681 62.3004 7.40015C59.1004 8.40015 56.0005 11.0001 53.5005 13.5001C51.8338 15.1001 50.1338 16.7335 48.4004 18.4001Z" fill="#AD3B41"/>
<path d="M38.6996 37.7001C36.4996 37.7001 34.4996 36.5001 32.9996 34.5001C32.333 33.5001 31.7996 32.3335 31.3996 31.0001C30.3996 27.3001 33.5996 18.0001 33.9996 17.0001L34.2996 16.1001H43.0996L43.3996 17.0001C43.7996 18.0001 46.8996 27.3001 45.8996 31.0001C45.5663 32.3335 45.033 33.5001 44.2996 34.5001C42.8996 36.5001 40.7996 37.7001 38.6996 37.7001Z" fill="#AD3B41"/>
<path d="M25.6004 34.5001C24.8004 34.5001 24.0004 34.2001 23.4004 33.6001C22.8004 32.9001 22.4004 31.9001 22.4004 31.0001C22.7004 26.4001 24.6004 23.0002 28.2004 21.3002L28.5004 21.2001H28.8004C29.4004 21.2001 29.8004 21.4001 30.1004 21.9001L30.5004 22.6001L30.0004 23.4001C29.4004 24.4001 28.9004 25.6001 28.7004 27.0001C28.6004 27.6001 28.7004 28.2001 28.7004 28.9001C28.8004 30.0001 28.9004 31.2001 28.4004 32.4001C28.1004 33.3001 27.4004 34.0002 26.6004 34.3002C26.2671 34.4335 25.9337 34.5001 25.6004 34.5001Z" fill="#AD3B41"/>
<path d="M51.7008 34.5001C51.3675 34.5001 51.0341 34.4335 50.7008 34.3002C49.8008 34.0002 49.1008 33.3001 48.8008 32.4001C48.4008 31.2001 48.4008 30.0001 48.5008 28.9001C48.6008 28.2001 48.6008 27.6001 48.5008 27.0001C48.3008 25.6001 47.8675 24.4001 47.2008 23.4001L46.8008 22.7001L47.1008 21.9001C47.4008 21.4001 47.9008 21.2001 48.4008 21.2001H48.7008L49.0008 21.3002C52.6008 23.0002 54.6008 26.4001 54.8008 31.0001C54.8008 31.9001 54.5008 32.9001 53.8008 33.6001C53.2008 34.2001 52.5008 34.5001 51.7008 34.5001Z" fill="#AD3B41"/>
<path d="M74.3999 58.4001C72.7333 58.4001 71.0666 58.2668 69.3999 58.0001H68.7999C67.6999 57.8001 66.3999 57.7001 65.2999 57.1001C64.6333 56.7668 64.1666 56.3668 63.8999 55.9001C63.3999 55.1001 63.2999 54.1001 63.6999 53.2001C63.9999 52.6001 64.4999 52.3001 64.7999 52.0001C65.8999 51.3001 67.1999 51.0002 68.1999 50.8002C68.6666 50.7335 69.1333 50.6668 69.5999 50.6001L69.9999 50.5001C71.3999 50.3001 72.8999 50.1001 74.4999 50.0001L75.7999 49.9001V51.3002C75.7999 53.2002 75.8 55.3001 75.7 57.2001L75.5999 58.4001H74.3999Z" fill="#AD3B41"/>
<path d="M74.3994 49.6001C73.466 49.5334 72.5661 49.4335 71.6994 49.3002L71.3994 49.2001C70.7994 49.1001 70.1994 49.0002 69.6994 48.8002C68.7994 48.4002 68.1994 47.7001 68.0994 47.0001C67.9994 46.3001 67.9994 44.8001 70.3994 43.6001C70.666 43.4668 70.8994 43.3668 71.0994 43.3002L74.4994 41.8002L74.8994 43.2001C75.366 44.9334 75.666 46.6335 75.7994 48.3002L75.8994 49.8002L74.3994 49.6001Z" fill="#AD3B41"/>
<path d="M1.60001 57.2001C1.50001 55.2001 1.5 53.2002 1.5 51.3002V49.9001L2.89999 50.0001C4.49999 50.1001 5.99999 50.3001 7.39999 50.5001L7.7 50.6001C8.16666 50.6668 8.66666 50.7335 9.2 50.8002C10.1 51.0002 11.4 51.3001 12.5 52.0001C12.9 52.3001 13.4 52.6001 13.7 53.2001C14 54.1001 14 55.1001 13.5 55.9001C13.1667 56.3668 12.7 56.7668 12.1 57.1001C10.9 57.7001 9.6 57.8001 8.5 58.0001H7.89999C6.29999 58.2668 4.63333 58.4001 2.89999 58.4001H1.7L1.60001 57.2001Z" fill="#AD3B41"/>
<path d="M1.5 48.3002C1.63333 46.6335 1.93333 44.9334 2.39999 43.2001L2.8 41.8002L6.2 43.3002C6.46666 43.3668 6.69999 43.4668 6.89999 43.6001C9.39999 44.8001 9.4 46.3001 9.3 47.0001C9.1 47.7001 8.5 48.4002 7.7 48.8002C7.1 49.0002 6.5 49.1001 6 49.2001L5.60001 49.3002C4.73334 49.4335 3.83333 49.5334 2.89999 49.6001L1.5 49.8002V48.3002Z" fill="#AD3B41"/>
<path d="M2.90077 66.0001C2.50077 64.9001 2.40078 63.8001 2.30078 62.7001C2.23411 62.2334 2.16745 61.7334 2.10078 61.2001L1.80078 59.6001L3.50078 59.7001C4.23411 59.7667 4.93412 59.8668 5.60078 60.0001L6.00078 60.1001C6.50078 60.2001 7.10078 60.3001 7.70078 60.6001C8.50078 60.9001 9.10078 61.6001 9.30078 62.4001C9.40078 63.1001 9.30077 64.6001 6.90077 65.7001C6.70077 65.8334 6.46744 65.9335 6.20078 66.0001L5.90077 66.2001C5.80077 66.2001 5.50078 66.3001 5.20078 66.4001C4.90078 66.5001 4.70078 66.6001 4.60078 66.7001L3.40077 67.2001L2.90077 66.0001Z" fill="#AD3B41"/>
<path d="M72.7992 66.7001C72.5992 66.6001 72.3993 66.5001 72.1993 66.4001C71.8993 66.3001 71.5992 66.2001 71.3992 66.2001L71.0993 66.0001C70.8993 65.9335 70.6659 65.8334 70.3992 65.7001C67.9992 64.6001 67.8993 63.1001 68.0993 62.4001C68.1993 61.6001 68.7993 60.9001 69.5993 60.6001C70.1993 60.3001 70.7992 60.2001 71.2992 60.1001L71.6993 60.0001C72.4326 59.8668 73.1659 59.7667 73.8992 59.7001L75.4992 59.6001L75.1993 61.2001C75.1326 61.7334 75.0993 62.2334 75.0993 62.7001C74.9993 63.8001 74.8992 64.9001 74.3992 66.0001L73.8992 67.2001L72.7992 66.7001Z" fill="#AD3B41"/>
<path fill-rule="evenodd" clip-rule="evenodd" d="M11.7 31.1001C11.3 31.1001 10.9 31.0002 10.5 30.8002C9.60004 30.4002 9.00003 29.5001 8.90003 28.5001C8.60003 24.0001 8.30004 19.5001 8.30004 15.2001C8.20004 13.2001 8.20004 11.4001 8.50004 9.6001C9.00004 6.8001 10.1 4.9001 11.8 4.1001C12.4667 3.76676 13.2 3.6001 14 3.6001C14.6667 3.6001 15.3667 3.73346 16.1 4.00012C20.1 5.10012 23.6 8.10015 26.5 10.9001C28.1 12.5001 30.4 14.6002 32.5 16.8002C33.2 17.5002 33.4001 18.5001 33.2001 19.5001C33.0001 20.4001 32.2 21.2001 31.3 21.5001C28.2 22.5001 24.8 23.9001 21.7 25.5001C18.6 27.0001 15.6 29.0001 13.4 30.6001C12.8667 30.9334 12.3 31.1001 11.7 31.1001ZM14 7.20013C13.6 7.20013 13.5 7.30011 13.4 7.30011C13 7.50011 12.4 8.40013 12.1 10.2001C11.8 11.7001 11.8 13.3001 11.9 15.1001C11.9 18.9001 12.1 22.9001 12.4 26.9001C14.6 25.4001 17.2 23.7001 20.1 22.2001C23 20.8001 26.1 19.4001 29 18.4001C27.2667 16.6668 25.6 15.0335 24 13.5001C21.4 11.0001 18.3 8.40015 15.1 7.40015C14.7 7.26681 14.3334 7.20013 14 7.20013Z" fill="#AD3B41"/>
<path d="M28.4998 22.3002C27.8998 22.3002 27.2998 22.0001 26.9998 21.5001C26.6664 21.0335 26.3664 20.6001 26.0998 20.2001C25.7664 19.7334 25.4331 19.3001 25.0998 18.9001C24.4331 18.0335 23.7664 17.2668 23.0998 16.6001C22.3998 15.9001 21.6998 15.2001 20.7998 14.4001L20.0998 13.9001L19.4998 13.5001C19.1998 13.3001 18.9998 13.1001 18.6998 12.9001L17.7998 12.3001L17.5998 11.7001C17.4998 11.3001 17.5998 10.9001 17.7998 10.6001L18.1998 10.0001H18.9998H19.2998L19.5998 10.1001C20.5998 10.6001 21.6998 11.2001 22.6998 11.9001C23.6331 12.5668 24.5664 13.3001 25.4998 14.1001C26.3998 15.0001 27.1998 15.8001 27.8998 16.7001C28.6998 17.6001 29.3998 18.6001 29.9998 19.6001C30.2998 20.0001 30.2998 20.4001 30.1998 20.9001C30.0998 21.4001 29.7998 21.8001 29.3998 22.0001C29.1331 22.2001 28.8331 22.3002 28.4998 22.3002Z" fill="#AD3B41"/>
<path d="M48.8991 22.3002C48.5658 22.3002 48.2325 22.2001 47.8991 22.0001C47.0991 21.5001 46.7991 20.4001 47.2991 19.6001C47.8991 18.6001 48.5991 17.6001 49.4991 16.7001C50.1991 15.8001 50.9991 15.0001 51.8991 14.1001C52.8325 13.3001 53.7658 12.5668 54.6992 11.9001C55.6992 11.2001 56.7991 10.6001 57.7991 10.1001L57.9991 10.0001H58.3991C58.8991 10.0001 59.3991 10.3001 59.5991 10.8001L60.0991 11.8001L59.1992 12.6001L58.6992 12.9001C58.4325 13.1001 58.1658 13.2668 57.8991 13.4001L57.1992 14.0001L56.5991 14.4001C55.7325 15.1335 54.9658 15.8668 54.2991 16.6001C53.5658 17.3334 52.8658 18.1001 52.1992 18.9001C51.8658 19.3001 51.5658 19.7334 51.2991 20.2001C50.9658 20.6001 50.6658 21.0001 50.3991 21.4001C50.0991 22.0001 49.4991 22.3002 48.8991 22.3002Z" fill="#AD3B41"/>
<path d="M55.4984 57.6001C52.0984 57.6001 49.3984 55.7002 49.3984 53.3002C49.3984 50.9002 52.0984 49.1001 55.4984 49.1001C58.8984 49.1001 61.5984 50.9002 61.5984 53.3002C61.5984 55.7002 58.8984 57.6001 55.4984 57.6001Z" fill="#AD3B41"/>
<path d="M21.9984 57.6001C18.5984 57.6001 15.8984 55.7002 15.8984 53.3002C15.8984 50.9002 18.5984 49.1001 21.9984 49.1001C25.3984 49.1001 28.0984 50.9002 28.0984 53.3002C28.0984 55.7002 25.3984 57.6001 21.9984 57.6001Z" fill="#AD3B41"/>
<path d="M20.4984 57.5001C17.6984 57.0001 15.8984 55.3002 15.8984 53.3002C15.8984 50.9002 18.5984 49.1001 21.9984 49.1001C22.9984 49.1001 23.9984 49.3001 24.8984 49.6001L24.2984 52.0001C23.9651 51.9335 23.5984 51.9001 23.1984 51.9001C20.9984 51.9001 19.6984 53.0001 19.6984 53.7001C19.6984 54.1001 20.2984 54.7001 21.1984 55.0001L20.4984 57.5001Z" fill="#AD3B41"/>
<path d="M56.3 55.0001C57.2 54.7001 57.8 54.1001 57.8 53.7001C57.8 53.0001 56.4 51.9001 54.3 51.9001C53.9 51.9001 53.5333 51.9335 53.2 52.0001L52.5 49.6001C53.4 49.3001 54.5 49.1001 55.5 49.1001C58.9 49.1001 61.6 50.9002 61.6 53.3002C61.6 55.3002 59.7 57.0001 57 57.5001L56.3 55.0001Z" fill="#AD3B41"/>
<path d="M29.5982 48.9001L29.2982 48.8002C28.3982 48.6002 27.4982 48.0001 26.5982 47.5001C25.5982 46.9001 24.3982 46.2002 23.1982 45.8002C21.8982 45.4002 19.9982 45.2001 18.5982 45.2001C18.1982 45.2001 17.8315 45.2335 17.4982 45.3002C16.6982 45.3002 16.0982 44.8001 15.9982 44.2001C15.7982 43.5001 16.0982 42.9001 16.5982 42.5001C17.5982 41.9001 19.6982 41.0001 22.3982 41.0001C23.1982 41.0001 24.0315 41.1002 24.8982 41.3002C28.5982 42.1002 30.5982 44.7001 31.3982 46.1001C31.6982 46.7001 31.6982 47.4001 31.3982 47.9001C31.0982 48.5001 30.3982 48.9001 29.7982 48.9001H29.5982Z" fill="#AD3B41"/>
<path d="M47.5984 48.9001C46.9984 48.9001 46.3984 48.5001 45.9984 47.9001C45.6984 47.4001 45.6984 46.7001 45.9984 46.1001C46.8984 44.7001 48.7984 42.1002 52.4984 41.3002C53.3651 41.1002 54.1984 41.0001 54.9984 41.0001C57.6984 41.0001 59.7984 41.9001 60.7984 42.5001C61.3984 42.8001 61.5984 43.5001 61.4984 44.2001C61.2984 44.8001 60.6984 45.3002 60.0984 45.3002C59.5984 45.2002 59.1984 45.2001 58.7984 45.2001C57.4984 45.2001 55.4985 45.4002 54.1985 45.8002C52.9985 46.2002 51.8984 46.9001 50.8984 47.5001C49.8984 48.0001 48.9984 48.6002 48.0984 48.8002L47.9984 48.9001H47.5984Z" fill="#AD3B41"/>
<path d="M34.3988 58.2001C33.2988 58.2001 32.1988 57.9001 31.2988 57.4001C30.1988 56.9001 29.1988 55.9002 28.4988 54.8002L28.2988 54.3002L28.3988 53.7001L28.4988 53.2001L29.0988 52.8002L29.3988 52.7001H29.7988H30.3988L30.8988 53.2001C31.0988 53.4667 31.3655 53.7335 31.6989 54.0001C32.0322 54.2001 32.3655 54.3668 32.6989 54.5001C33.0989 54.7001 33.5322 54.8002 33.9988 54.8002C34.1988 54.8002 34.4322 54.7667 34.6989 54.7001C35.3655 54.5667 35.9655 54.2668 36.4988 53.8002C36.9988 53.3002 37.4988 52.6001 37.7988 52.0001C37.9988 51.2001 38.6988 50.8002 39.3988 50.8002H39.6989L40.0988 50.9001C40.9988 51.3001 41.4988 52.3001 41.0988 53.2001C40.6988 54.4667 39.9655 55.5335 38.8988 56.4001C37.8988 57.3001 36.5988 57.9001 35.2988 58.1001C34.9655 58.1668 34.6655 58.2001 34.3988 58.2001Z" fill="#AD3B41"/>
<path d="M42.9985 58.2001C42.6652 58.2001 42.3652 58.1668 42.0985 58.1001C40.6985 57.9001 39.3985 57.3001 38.3985 56.4001C37.3985 55.5335 36.6652 54.4667 36.1985 53.2001C35.8985 52.3001 36.3985 51.2001 37.2985 50.9001L37.4985 50.8002H37.8985C38.6985 50.8002 39.2985 51.2001 39.5985 51.9001C39.8985 52.6001 40.2985 53.3002 40.7985 53.8002C41.2985 54.3002 41.9985 54.6001 42.5985 54.7001C42.8652 54.7667 43.1319 54.8002 43.3985 54.8002C43.8652 54.8002 44.2985 54.7001 44.6985 54.5001C45.0319 54.3668 45.3319 54.2001 45.5985 54.0001C45.9985 53.7335 46.2985 53.4667 46.4985 53.2001L46.8985 52.7001H47.5985C47.9319 52.7001 48.1985 52.7668 48.3985 52.9001L49.2985 53.6001L48.7985 54.8002C48.1985 55.9002 47.1985 56.9001 45.9985 57.5001C45.0985 57.9001 44.0985 58.2001 42.9985 58.2001Z" fill="#AD3B41"/>
<path fill-rule="evenodd" clip-rule="evenodd" d="M38.6994 55.5001C36.6994 55.5001 35.2994 53.6001 34.4994 52.1001C34.1994 51.4001 34.0994 50.6002 34.2994 49.8002C35.0994 47.7002 37.2994 47.7001 38.6994 47.7001C39.9994 47.7001 42.2994 47.7002 42.9994 49.8002C43.2994 50.5002 43.1994 51.4001 42.7994 52.1001C41.9994 53.6001 40.5994 55.5001 38.6994 55.5001ZM38.2994 51.3002C38.4327 51.5002 38.5661 51.6668 38.6994 51.8002C38.7661 51.6668 38.8994 51.5002 39.0994 51.3002C38.8994 51.3002 38.3994 51.3002 38.2994 51.3002Z" fill="#AD3B41"/>
<path d="M29.6976 44.8002L29.2976 43.8002C29.0976 42.8668 28.8309 41.9668 28.4976 41.1001C28.3642 40.7001 28.2309 40.3001 28.0976 39.9001C27.9642 39.3668 27.7976 38.8001 27.5976 38.2001C27.2976 37.3001 27.8976 36.3001 28.7976 36.0001L28.9976 35.9001H29.2976C30.0976 35.9001 30.7976 36.4001 30.9976 37.1001C31.3976 38.2001 31.6976 39.2001 31.7976 40.2001C31.9976 41.2001 32.1976 42.4001 32.0976 43.5001V44.7001L30.6976 44.9001L29.6976 44.8002Z" fill="#AD3B41"/>
<path d="M27.2983 43.6001L26.8983 42.7001C26.6983 42.2001 26.4983 41.6001 26.0983 41.0001C25.965 40.8001 25.8649 40.6001 25.7983 40.4001L25.0983 39.3002C24.5983 38.4002 24.8983 37.3002 25.7983 36.8002C26.0649 36.6668 26.365 36.6001 26.6983 36.6001C27.1983 36.6001 27.7983 36.9002 28.0983 37.3002C28.365 37.7002 28.5983 38.1001 28.7983 38.5001C28.9316 38.8335 29.0983 39.2001 29.2983 39.6001C29.3983 40.1001 29.4983 40.5001 29.5983 40.9001C29.6983 41.3001 29.6983 41.8001 29.6983 42.4001L29.4983 43.5001L28.2983 43.6001H27.2983Z" fill="#AD3B41"/>
<path d="M46.4985 44.9001L45.3985 44.6001L45.1985 43.6001C45.0985 42.3001 45.2985 41.2001 45.4985 40.2001C45.6985 39.3001 45.8985 38.2001 46.2985 37.1001C46.5985 36.4001 47.1985 35.9001 47.9985 35.9001H48.1985L48.5985 36.0001C49.4985 36.4001 49.9985 37.3001 49.6985 38.2001C49.5651 38.8001 49.3985 39.3668 49.1985 39.9001C49.0651 40.3001 48.9318 40.7001 48.7985 41.1001C48.5318 41.9668 48.2651 42.8668 47.9985 43.8002L47.6985 44.8002L46.5985 44.9001H46.4985Z" fill="#AD3B41"/>
<path d="M48.7987 43.6001L47.7987 43.3002L47.6987 42.4001C47.5987 41.8001 47.6987 41.3001 47.6987 40.9001C47.7654 40.5001 47.8654 40.1001 47.9987 39.7001C48.1987 39.2001 48.3987 38.8001 48.4987 38.5001C48.6987 38.1001 48.9321 37.7002 49.1987 37.3002C49.4987 36.9002 50.0987 36.6001 50.6987 36.6001C51.0321 36.6001 51.3654 36.7001 51.6987 36.9001C52.4987 37.4001 52.6987 38.4001 52.1987 39.2001L51.5987 40.4001C51.4654 40.6001 51.3321 40.8001 51.1987 41.0001C50.7987 41.6001 50.5987 42.2001 50.3987 42.7001L50.0987 43.5001L49.0987 43.6001H48.7987Z" fill="#AD3B41"/>
<path fill-rule="evenodd" clip-rule="evenodd" d="M55.4984 58.1001C51.6984 58.1001 48.8984 56.1002 48.8984 53.3002C48.8984 50.6002 51.6984 48.5001 55.4984 48.5001C59.2984 48.5001 62.0984 50.6002 62.0984 53.3002C62.0984 56.1002 59.2984 58.1001 55.4984 58.1001ZM55.4984 52.2001C53.4984 52.2001 52.4984 53.0002 52.4984 53.3002C52.4984 53.6002 53.4984 54.5001 55.4984 54.5001C57.3984 54.5001 58.4984 53.6002 58.4984 53.3002C58.4984 53.0002 57.3984 52.2001 55.4984 52.2001Z" fill="#AD3B41"/>
<path fill-rule="evenodd" clip-rule="evenodd" d="M21.9984 58.1001C18.1984 58.1001 15.3984 56.1002 15.3984 53.3002C15.3984 50.6002 18.1984 48.5001 21.9984 48.5001C25.7984 48.5001 28.5984 50.6002 28.5984 53.3002C28.5984 56.1002 25.7984 58.1001 21.9984 58.1001ZM21.9984 52.2001C19.9984 52.2001 18.9984 53.0002 18.9984 53.3002C18.9984 53.6002 19.9984 54.5001 21.9984 54.5001C23.8984 54.5001 24.9984 53.6002 24.9984 53.3002C24.9984 53.0002 23.8984 52.2001 21.9984 52.2001Z" fill="#AD3B41"/>
<path d="M69.5 34C70.1 27.7333 70.4667 21.4667 70.6 15.2C70.7 13.2 70.7 11.3 70.3 9.40001C69.9 6.80001 68.8 3.99997 66.3 2.79997C64.6 2.09997 62.7 2.09996 61 2.59996C56.8 3.79996 53.1 6.90001 50 9.90001C47.5 12.3 44.9 14.8 42.4 17.4C41.2 17.2667 39.9667 17.1999 38.7 17.1999C37.4333 17.1999 36.1667 17.2667 34.9 17.4C32.5 14.8 29.9 12.3 27.3 9.90001C24.2 6.90001 20.6 3.79996 16.4 2.59996C14.6 2.09996 12.7 2.09997 11.1 2.79997C8.60001 3.99997 7.5 6.80001 7 9.40001C6.7 11.3 6.7 13.2 6.7 15.2C6.83333 21.4667 7.2 27.7333 7.8 34C4.5 38.9 2.5 44.5 2.5 50C2.5 66.1 2.50001 79.1999 38.7 79.1999C74.9 79.1999 74.9 66.1 74.9 50C74.9 44.5 72.9 38.9 69.5 34Z" fill="white"/>
<path d="M65.1003 29.1001C65.8003 29.6001 66.7003 29.1002 66.7003 28.3002C67.0337 23.9002 67.267 19.5001 67.4003 15.1001C67.4003 13.2001 67.4003 11.5001 67.1003 9.90015C66.9003 8.40015 66.2003 6.40013 64.8003 5.70013C64.4003 5.50013 63.9336 5.40015 63.4003 5.40015C62.9336 5.40015 62.4003 5.50013 61.8003 5.70013C58.2003 6.70013 54.9003 9.60013 52.2003 12.2001C50.3003 14.0001 48.3003 16.0001 46.2003 18.0001C45.7003 18.6001 45.9003 19.5002 46.7003 19.8002C49.6003 20.7002 53.1003 22.1001 56.6003 23.9001C59.8003 25.5001 62.8003 27.5001 65.1003 29.1001Z" fill="white"/>
<path d="M64.6993 28.7C64.9993 24 65.2992 19.4 65.2992 14.8C65.3992 12.6 65.3993 10.7 65.0993 9C64.7993 7 64.0993 5.89998 63.5993 5.59998C63.5993 5.59998 63.3993 5.5 62.9993 5.5C62.5993 5.5 62.1993 5.60001 61.6993 5.70001C61.2993 5.83335 60.8659 6.00001 60.3993 6.20001C57.2993 7.50001 54.5993 9.90001 52.1993 12.2C50.2993 14 48.2993 16 46.1993 18C45.8993 18.3 45.8993 18.7 45.9993 19.1C49.1993 20.2 52.5993 21.7 55.6993 23.3C59.0993 25 62.1993 26.9 64.6993 28.7Z" fill="white"/>
<path d="M12.3008 29.1001C11.7008 29.6001 10.7008 29.1002 10.7008 28.3002C10.3675 23.9002 10.1675 19.5001 10.1008 15.1001C10.0008 13.2001 10.0008 11.5001 10.3008 9.90015C10.6008 8.40015 11.2008 6.40013 12.6008 5.70013C13.0008 5.50013 13.4675 5.40015 14.0008 5.40015C14.5342 5.40015 15.0675 5.50013 15.6008 5.70013C19.2008 6.70013 22.5008 9.60013 25.2008 12.2001C27.1008 14.0001 29.2008 16.0001 31.2008 18.0001C31.7008 18.6001 31.5008 19.5002 30.8008 19.8002C27.9008 20.7002 24.3008 22.1001 20.9008 23.9001C17.6008 25.5001 14.6008 27.5001 12.3008 29.1001Z" fill="white"/>
<path d="M41.3004 50.4C41.4004 50.7 41.4004 51 41.2004 51.3C40.8004 52 39.8004 53.7 38.7004 53.7C37.5004 53.7 36.5004 52 36.1004 51.3C36.0004 51 36.0004 50.7 36.1004 50.4C36.3004 49.6 37.4004 49.5 38.7004 49.5C39.9004 49.5 41.0004 49.6 41.3004 50.4Z" fill="white"/>
<path d="M12.7008 28.7C12.4008 24 12.2008 19.4 12.1008 14.8C12.0008 12.6 12.0008 10.7 12.3008 9C12.7008 7 13.3008 5.89998 13.8008 5.59998C13.8008 5.59998 14.0008 5.5 14.4008 5.5C14.8008 5.5 15.2008 5.60001 15.7008 5.70001C16.1675 5.83335 16.6008 6.00001 17.0008 6.20001C20.1008 7.50001 22.8008 9.90001 25.2008 12.2C27.1008 14 29.2008 16 31.2008 18C31.5008 18.3 31.5008 18.7 31.4008 19.1C28.2008 20.2 24.8008 21.7 21.7008 23.3C18.4008 25 15.3008 26.9 12.7008 28.7Z" fill="white"/>
<path d="M60.2992 53.3C60.2992 55 58.1992 56.3 55.4992 56.3C52.7992 56.3 50.6992 55 50.6992 53.3C50.6992 51.7 52.7992 50.3 55.4992 50.3C58.1992 50.3 60.2992 51.7 60.2992 53.3Z" fill="white"/>
<path d="M26.7992 53.3C26.7992 55 24.6992 56.3 21.9992 56.3C19.2992 56.3 17.1992 55 17.1992 53.3C17.1992 51.7 19.2992 50.3 21.9992 50.3C24.6992 50.3 26.7992 51.7 26.7992 53.3Z" fill="white"/>
<path d="M18.3992 53.7C18.3992 52 20.4992 50.7 23.1992 50.7C23.6659 50.7 24.0992 50.7334 24.4992 50.8C23.7992 50.5 22.8992 50.3 21.9992 50.3C19.2992 50.3 17.1992 51.7 17.1992 53.3C17.1992 54.7 18.6992 55.9 20.6992 56.2C19.2992 55.7 18.3992 54.7 18.3992 53.7Z" fill="white"/>
<path d="M59.1 53.7C59.1 52 56.9 50.7 54.3 50.7C53.8333 50.7 53.4 50.7334 53 50.8C53.7 50.5 54.6 50.3 55.5 50.3C58.2 50.3 60.3 51.7 60.3 53.3C60.3 54.7 58.8 55.9 56.8 56.2C58.2 55.7 59.1 54.7 59.1 53.7Z" fill="white"/>
<path fill-rule="evenodd" clip-rule="evenodd" d="M38.7 79.8001C2.00001 79.8001 2 66.0001 2 50.0001C2 44.6001 3.8 39.0001 7.3 33.8001C6.7 27.6001 6.3 21.3001 6.2 15.2001C6.2 13.2001 6.2 11.2001 6.5 9.30006C7.1 5.80006 8.59999 3.4001 10.9 2.4001C12.5 1.6001 14.5 1.50005 16.5 2.10005C20.9 3.40005 24.6 6.50007 27.7 9.50007C30.4 12.1001 32.8 14.4001 35.1 16.9001C37.5 16.6001 39.8 16.6001 42.2 16.9001C44.5 14.4001 47 12.1001 49.7 9.50007C52.7 6.50007 56.4 3.40005 60.8 2.10005C62.9 1.50005 64.9 1.6001 66.5 2.4001C68.8 3.4001 70.3 5.80006 70.9 9.30006C71.2 11.2001 71.2 13.2001 71.2 15.2001C71 21.3001 70.7 27.6001 70.1 33.8001C73.6 39.0001 75.4 44.6001 75.4 50.0001C75.4 66.0001 75.4 79.8001 38.7 79.8001ZM13.9 2.80006C12.9667 2.80006 12.1 2.96673 11.3 3.30006C8.9 4.50006 7.9 7.30007 7.5 9.50007C7.2 11.3001 7.2 13.2001 7.3 15.2001C7.4 21.3001 7.79999 27.6001 8.39999 33.9001C8.39999 34.0334 8.36667 34.1668 8.3 34.3001C4.8 39.3001 3 44.7001 3 50.0001C3 66.0001 3.00001 78.7 38.7 78.7C74.3 78.7 74.3 66.0001 74.3 50.0001C74.3 44.7001 72.5 39.3001 69.1 34.3001C69.0333 34.1668 69 34.0334 69 33.9001C69.6 27.6001 70 21.3001 70.1 15.2001C70.1 13.2001 70.1 11.3001 69.8 9.50007C69.4 7.30007 68.5 4.50006 66 3.30006C64.7 2.70006 62.9 2.60005 61.1 3.10005C57 4.30005 53.4 7.40009 50.4 10.2001C47.6 12.9001 45.2 15.3001 42.8 17.8001C42.6667 17.9335 42.5333 17.9668 42.4 17.9001C39.9 17.7001 37.5 17.7001 35 17.9001C34.8 17.9668 34.6333 17.9335 34.5 17.8001C32.2 15.3001 29.7 12.9001 26.9 10.2001C24 7.40009 20.4 4.30005 16.2 3.10005C15.4 2.90005 14.6333 2.80006 13.9 2.80006Z" fill="#AD3B41"/>
<path fill-rule="evenodd" clip-rule="evenodd" d="M65.7003 29.8002C65.367 29.8002 65.067 29.7001 64.8003 29.5001C62.5003 28.0001 59.5003 25.9002 56.3003 24.3002C53.1003 22.7002 49.6003 21.3002 46.5003 20.3002C46.0003 20.1002 45.6003 19.7001 45.5003 19.2001C45.3003 18.6001 45.5003 18.1001 45.9003 17.7001C47.9003 15.6001 50.0003 13.6001 51.8003 11.8001C54.6003 9.10012 58.0003 6.30015 61.7003 5.20015C62.9004 4.80015 64.2003 4.80015 65.0003 5.20015C66.7003 6.00015 67.4004 8.20012 67.7003 9.80012C67.9004 11.5001 67.9003 13.2001 67.9003 15.1001C67.8003 19.5001 67.6003 23.9002 67.3003 28.4002C67.2003 28.9002 66.9003 29.4001 66.4003 29.7001C66.1337 29.7668 65.9004 29.8002 65.7003 29.8002ZM63.4003 6.00013C62.9337 6.00013 62.467 6.06681 62.0003 6.20015C58.5003 7.20015 55.3003 10.0001 52.6003 12.6001C50.6003 14.4001 48.6003 16.4002 46.6003 18.4002C46.4003 18.6002 46.5003 18.8002 46.5003 18.9002C46.5003 19.0002 46.6003 19.2002 46.8003 19.3002C50.0003 20.3002 53.5003 21.7002 56.8003 23.4002C60.1003 25.0002 63.1003 27.1001 65.4003 28.7001C65.6003 28.8001 65.8003 28.8001 65.9003 28.7001C66.0003 28.7001 66.2003 28.6002 66.2003 28.3002C66.5003 23.9002 66.7003 19.4001 66.8003 15.1001C66.9003 13.2001 66.9003 11.6001 66.6003 10.0001C66.3003 8.00013 65.5003 6.70015 64.6003 6.20015C64.267 6.06681 63.867 6.00013 63.4003 6.00013Z" fill="#AD3B41"/>
<path d="M43.3011 33.8002C43.9011 33.0002 44.4012 32.0001 44.7012 30.7001C45.6012 27.3001 42.2012 17.4001 42.2012 17.4001H35.2012C35.2012 17.4001 31.7012 27.3001 32.7012 30.7001C33.0012 32.0001 33.5012 33.0002 34.1012 33.8002C36.6012 37.3002 40.8011 37.3002 43.3011 33.8002Z" fill="#AD3B41"/>
<path d="M28.7012 22.5002C28.9012 22.4002 29.1012 22.5001 29.0012 22.7001C28.1012 23.9001 27.7012 25.3002 27.5012 26.8002C27.2012 28.5002 27.8012 30.4002 27.2012 32.0002C27.1012 32.5002 26.7012 33.0001 26.1012 33.2001C24.7012 33.7001 23.7012 32.1002 23.7012 31.1002C23.9012 27.5002 25.2012 24.2002 28.7012 22.5002Z" fill="#AD3B41"/>
<path d="M48.501 22.5002C48.301 22.4002 48.2009 22.5001 48.3009 22.7001C49.1009 23.9001 49.5009 25.3002 49.8009 26.8002C50.0009 28.5002 49.401 30.4002 50.001 32.0002C50.201 32.5002 50.601 33.0001 51.101 33.2001C52.501 33.7001 53.601 32.1002 53.501 31.1002C53.401 27.5002 52.001 24.2002 48.501 22.5002Z" fill="#AD3B41"/>
<path d="M65.5004 53.1001C66.4004 52.5001 67.4004 52.3001 68.4004 52.1001C69.0004 51.9668 69.6004 51.8668 70.2004 51.8002C71.6671 51.5335 73.1338 51.3668 74.6004 51.3002C74.6004 53.3002 74.5004 55.3001 74.4004 57.1001C72.8004 57.1001 71.2004 57.0002 69.6004 56.8002C68.3004 56.6002 67.0004 56.5001 65.8004 55.9001C65.5004 55.8001 65.2004 55.5001 64.9004 55.2001C64.7004 54.8001 64.6004 54.2002 64.8004 53.8002C65.0004 53.5002 65.2004 53.3001 65.5004 53.1001Z" fill="#AD3B41"/>
<path d="M71.9013 48.0001C71.3013 47.9001 70.7013 47.8001 70.2013 47.6001C69.8013 47.4001 69.4013 47.1001 69.3013 46.7001C69.2013 45.8001 70.3013 45.1001 71.0013 44.7001C71.268 44.5667 71.568 44.4335 71.9013 44.3002C72.5013 44.0335 73.1013 43.8001 73.7013 43.6001C74.168 45.2001 74.4346 46.8001 74.5013 48.4001C73.6346 48.3335 72.768 48.2001 71.9013 48.0001Z" fill="#AD3B41"/>
<path d="M11.9008 53.1001C11.0008 52.5001 10.0008 52.3001 8.90077 52.1001C8.30077 51.9668 7.73411 51.8668 7.20078 51.8002C5.73411 51.5335 4.26745 51.3668 2.80078 51.3002C2.80078 53.3002 2.80077 55.3001 2.90077 57.1001C4.50077 57.1001 6.13411 57.0002 7.80078 56.8002C9.00078 56.6002 10.3008 56.5001 11.5008 55.9001C11.8008 55.8001 12.2008 55.5001 12.4008 55.2001C12.7008 54.8001 12.7008 54.2002 12.5008 53.8002C12.4008 53.5002 12.1008 53.3001 11.9008 53.1001Z" fill="#AD3B41"/>
<path d="M5.40077 48.0001C6.00077 47.9001 6.60078 47.8001 7.20078 47.6001C7.60078 47.4001 7.90078 47.1001 8.00078 46.7001C8.20078 45.8001 7.10077 45.1001 6.40077 44.7001C6.06744 44.5667 5.73411 44.4335 5.40077 44.3002C4.80077 44.0335 4.20078 43.8001 3.60078 43.6001C3.20078 45.2001 2.93411 46.8001 2.80078 48.4001C3.66745 48.3335 4.53411 48.2001 5.40077 48.0001Z" fill="#AD3B41"/>
<path d="M8.0004 62.6001C7.9004 62.2001 7.60039 61.9001 7.20039 61.7001C6.60039 61.5001 6.00039 61.4002 5.40039 61.3002C4.73372 61.1668 4.06706 61.0668 3.40039 61.0001C3.60039 62.5001 3.5004 64.1001 4.1004 65.5001C4.4004 65.4001 5.10039 65.1001 5.40039 65.0001C5.73372 64.8668 6.06706 64.7334 6.40039 64.6001C7.10039 64.2001 8.2004 63.6001 8.0004 62.6001Z" fill="#AD3B41"/>
<path d="M69.3013 62.6001C69.4013 62.2001 69.8013 61.9001 70.2013 61.7001C70.7013 61.5001 71.3013 61.4002 71.9013 61.3002C72.6346 61.1668 73.3346 61.0668 74.0013 61.0001C73.7013 62.5001 73.8013 64.1001 73.3013 65.5001C73.0013 65.4001 72.2013 65.1001 71.9013 65.0001C71.568 64.8668 71.268 64.7334 71.0013 64.6001C70.3013 64.2001 69.2013 63.6001 69.3013 62.6001Z" fill="#AD3B41"/>
<path fill-rule="evenodd" clip-rule="evenodd" d="M11.7 29.8002C11.5 29.8002 11.3 29.7668 11.1 29.7001C10.5 29.4001 10.2 28.9002 10.2 28.4002C9.8 23.9002 9.6 19.5001 9.5 15.1001C9.5 13.2001 9.5 11.5001 9.8 9.80012C10.1 8.20012 10.7 6.00015 12.4 5.20015C13.2 4.80015 14.5 4.80015 15.7 5.20015C19.5 6.30015 22.8 9.10012 25.6 11.8001C27.4 13.6001 29.5 15.6001 31.6 17.7001C31.9 18.1001 32.1 18.6001 32 19.2001C31.8 19.7001 31.4 20.1002 30.9 20.3002C27.8 21.3002 24.3 22.7002 21.1 24.3002C17.9 25.9002 14.9 28.0001 12.6 29.5001C12.3333 29.7001 12.0333 29.8002 11.7 29.8002ZM14 6.00013C13.5333 6.00013 13.1333 6.06681 12.8 6.20015C11.9 6.70015 11.2 8.00013 10.8 10.0001C10.5 11.6001 10.5 13.2001 10.6 15.1001C10.7 19.4001 10.9 23.9002 11.2 28.3002C11.2 28.6002 11.4 28.7001 11.5 28.7001C11.6 28.8001 11.8 28.8001 12 28.7001C14.3 27.1001 17.4 25.0002 20.6 23.4002C23.9 21.7002 27.4 20.3002 30.6 19.3002C30.8 19.2002 30.9 19.0002 30.9 18.9002C31 18.8002 31 18.6002 30.8 18.4002C28.8 16.4002 26.8 14.4001 24.8 12.6001C22.2 10.0001 18.9 7.20015 15.4 6.20015C14.9333 6.06681 14.4667 6.00013 14 6.00013Z" fill="#AD3B41"/>
<path d="M28.0016 20.8002C27.7349 20.3335 27.4349 19.8668 27.1016 19.4002C26.7682 19.0002 26.4349 18.5668 26.1016 18.1001C25.4349 17.3001 24.7349 16.5001 24.0016 15.7001C23.2016 14.9001 22.4016 14.1668 21.6016 13.5001L20.9016 12.9002L20.3016 12.5001C19.8016 12.1001 19.4016 11.8001 18.9016 11.5001C18.8349 11.4335 18.8349 11.3668 18.9016 11.3001C18.9016 11.2335 18.9349 11.2335 19.0016 11.3001C20.1016 11.8001 21.1016 12.3002 22.0016 12.9002C22.9349 13.5668 23.8016 14.2668 24.6016 15.0001C25.4016 15.8001 26.1682 16.6335 26.9016 17.5001C27.7016 18.3001 28.3016 19.2001 28.9016 20.2001C29.1016 20.5001 29.0016 20.8002 28.8016 20.9002C28.5016 21.1002 28.2016 21.0002 28.0016 20.8002Z" fill="#AD3B41"/>
<path d="M48.4016 20.2C49.0016 19.2 49.7016 18.3001 50.4016 17.5001C51.1349 16.6334 51.9349 15.8001 52.8016 15.0001C53.6016 14.2667 54.4683 13.5668 55.4016 12.9001C56.3016 12.3001 57.3016 11.8001 58.3016 11.3001C58.4016 11.2001 58.5016 11.3001 58.5016 11.3001C58.5016 11.3667 58.4683 11.4334 58.4016 11.5001C58.0016 11.8001 57.5016 12.1001 57.1016 12.5001L56.4016 12.9001L55.8016 13.5001C54.9349 14.1667 54.1349 14.9001 53.4016 15.7001C52.6016 16.5001 51.8683 17.3 51.2016 18.1C50.8683 18.5667 50.535 19.0001 50.2016 19.4001C49.935 19.8668 49.6349 20.3335 49.3016 20.8001C49.2016 21.0001 48.8016 21.1001 48.6016 20.9001C48.3016 20.8001 48.3016 20.5 48.4016 20.2Z" fill="#AD3B41"/>
<path d="M29.6024 47.6001C30.1024 47.7001 30.6024 47.2 30.3024 46.7C29.5024 45.4 27.8024 43.3001 24.6024 42.5001C21.2024 41.7001 18.5024 42.9001 17.3024 43.6001C17.1024 43.7001 17.2024 44.0001 17.4024 44.0001C18.7024 43.9001 21.7024 44.0001 23.6024 44.6001C26.1024 45.4001 28.1024 47.1001 29.6024 47.6001Z" fill="#AD3B41"/>
<path d="M47.8014 47.6001C47.3014 47.7001 46.9014 47.2 47.1014 46.7C47.9014 45.4 49.6014 43.3001 52.8014 42.5001C56.2014 41.7001 58.9014 42.9001 60.1014 43.6001C60.3014 43.7001 60.2014 44.0001 60.0014 44.0001C58.7014 43.9001 55.8014 44.0001 53.8014 44.6001C51.3014 45.4001 49.3014 47.1001 47.8014 47.6001Z" fill="#AD3B41"/>
<path d="M29.9016 54.0001C30.1682 54.4001 30.5016 54.7335 30.9016 55.0001C31.3016 55.3335 31.7349 55.5668 32.2016 55.7001C33.1016 56.1001 34.0016 56.1002 35.0016 55.9002C35.9016 55.8002 36.7016 55.3001 37.4016 54.7001C38.1016 54.1001 38.6016 53.3002 38.9016 52.4002C39.1016 52.1002 39.4016 52.0001 39.6016 52.1001C39.9016 52.2001 40.0016 52.5002 39.9016 52.8002C39.5682 53.8669 38.9682 54.7668 38.1016 55.5001C37.3016 56.2001 36.2016 56.7002 35.1016 56.8002C34.0016 57.0002 32.9016 56.8002 31.9016 56.3002C31.0016 55.8002 30.2016 55.1001 29.6016 54.1001C29.6016 54.1001 29.6016 54.0001 29.7016 54.0001C29.7682 53.9335 29.8349 53.9335 29.9016 54.0001Z" fill="#AD3B41"/>
<path d="M47.7016 54.1001C47.2016 55.1001 46.4016 55.8002 45.4016 56.3002C44.5016 56.8002 43.3016 57.0002 42.2016 56.8002C41.2016 56.7002 40.1016 56.2001 39.3016 55.5001C38.4349 54.7668 37.8016 53.8669 37.4016 52.8002C37.3016 52.5002 37.5016 52.2001 37.7016 52.1001C38.0016 52.0001 38.3016 52.1002 38.4016 52.4002C38.7016 53.3002 39.3016 54.1001 40.0016 54.7001C40.6016 55.3001 41.5016 55.8002 42.4016 55.9002C43.3016 56.1002 44.3016 56.1001 45.2016 55.7001C45.6016 55.5668 46.0016 55.3335 46.4016 55.0001C46.8016 54.7335 47.1683 54.4001 47.5016 54.0001C47.5683 53.9335 47.6349 53.9335 47.7016 54.0001C47.7683 54.0001 47.7683 54.0334 47.7016 54.1001Z" fill="#AD3B41"/>
<path fill-rule="evenodd" clip-rule="evenodd" d="M38.7012 54.2001C37.3012 54.2001 36.2012 52.5001 35.7012 51.5001C35.5012 51.1001 35.4012 50.6001 35.6012 50.2001C36.0012 49.0001 37.4012 49.0001 38.7012 49.0001C39.9012 49.0001 41.4012 49.0001 41.8012 50.2001C41.9012 50.6001 41.9012 51.1001 41.7012 51.5001C41.2012 52.5001 40.1012 54.2001 38.7012 54.2001ZM38.7012 50.1001C37.5012 50.1001 36.7012 50.1001 36.6012 50.6001C36.5345 50.7334 36.5345 50.8668 36.6012 51.0001C37.1012 52.0001 38.0012 53.1001 38.7012 53.1001C39.4012 53.1001 40.2012 52.0001 40.8012 51.0001C40.8679 50.8668 40.8679 50.7334 40.8012 50.6001C40.6012 50.1001 39.9012 50.1001 38.7012 50.1001Z" fill="#AD3B41"/>
<path d="M29.8014 37.5001C30.2014 38.5001 30.4014 39.5001 30.6014 40.5001C30.8014 41.4001 30.9014 42.5001 30.9014 43.5001C30.9014 43.6001 30.8014 43.6001 30.7014 43.6001C30.6348 43.6001 30.6014 43.5668 30.6014 43.5001C30.3348 42.5668 30.0348 41.6334 29.7014 40.7001C29.4014 39.7001 29.1014 38.8001 28.8014 37.9001C28.7014 37.6001 28.9014 37.3001 29.2014 37.2001C29.5014 37.1001 29.7014 37.3001 29.8014 37.5001Z" fill="#AD3B41"/>
<path d="M27.1017 38.1001C27.3017 38.3668 27.4684 38.6668 27.6017 39.0001C27.8017 39.3335 27.9684 39.6668 28.1017 40.0001C28.1684 40.4001 28.235 40.7668 28.3017 41.1001C28.3684 41.5001 28.4017 41.8667 28.4017 42.2001C28.4017 42.3001 28.3017 42.4002 28.2017 42.4002C28.135 42.4002 28.1017 42.3668 28.1017 42.3002C27.9017 41.6335 27.6017 41.0002 27.2017 40.4002C27.0684 40.1335 26.9017 39.8335 26.7017 39.5001C26.5017 39.2335 26.335 38.9334 26.2017 38.6001C26.0017 38.4001 26.1017 38.0002 26.4017 37.9002C26.6017 37.8002 26.9017 37.8001 27.1017 38.1001Z" fill="#AD3B41"/>
<path d="M48.5019 37.9001C48.2019 38.8001 47.9019 39.7001 47.6019 40.7001C47.2685 41.6334 47.0019 42.5668 46.8019 43.5001C46.7019 43.6001 46.7019 43.6001 46.6019 43.6001C46.5352 43.6001 46.5019 43.5668 46.5019 43.5001C46.4019 42.5001 46.6019 41.4001 46.7019 40.5001C46.9019 39.5001 47.1019 38.5001 47.5019 37.5001C47.6019 37.3001 47.9019 37.1001 48.2019 37.2001C48.4019 37.3001 48.6019 37.6001 48.5019 37.9001Z" fill="#AD3B41"/>
<path d="M51.1024 38.6001C50.969 38.9334 50.8024 39.2335 50.6024 39.5001C50.4024 39.8335 50.2357 40.1335 50.1024 40.4002C49.769 41.0002 49.469 41.6335 49.2024 42.3002C49.2024 42.3002 49.1023 42.4002 49.0023 42.4002C48.9357 42.3335 48.9023 42.2667 48.9023 42.2001C48.9023 41.8667 48.9357 41.5001 49.0023 41.1001C49.069 40.7668 49.169 40.4001 49.3023 40.0001C49.4357 39.6668 49.569 39.3335 49.7024 39.0001C49.8357 38.6668 50.0024 38.3668 50.2024 38.1001C50.4024 37.8001 50.7023 37.8002 51.0023 37.9002C51.2023 38.1002 51.3024 38.4001 51.1024 38.6001Z" fill="#AD3B41"/>
<path fill-rule="evenodd" clip-rule="evenodd" d="M55.5016 56.8002C52.5016 56.8002 50.1016 55.3002 50.1016 53.3002C50.1016 51.4002 52.5016 49.8002 55.5016 49.8002C58.5016 49.8002 60.9016 51.4002 60.9016 53.3002C60.9016 55.3002 58.5016 56.8002 55.5016 56.8002ZM55.5016 50.9001C53.2016 50.9001 51.2016 52.0002 51.2016 53.3002C51.2016 54.7002 53.2016 55.8002 55.5016 55.8002C57.8016 55.8002 59.8015 54.7002 59.8015 53.3002C59.8015 52.0002 57.8016 50.9001 55.5016 50.9001Z" fill="#AD3B41"/>
<path fill-rule="evenodd" clip-rule="evenodd" d="M22.0016 56.8002C19.0016 56.8002 16.6016 55.3002 16.6016 53.3002C16.6016 51.4002 19.0016 49.8002 22.0016 49.8002C25.0016 49.8002 27.3015 51.4002 27.3015 53.3002C27.3015 55.3002 25.0016 56.8002 22.0016 56.8002ZM22.0016 50.9001C19.7016 50.9001 17.7016 52.0002 17.7016 53.3002C17.7016 54.7002 19.7016 55.8002 22.0016 55.8002C24.3016 55.8002 26.3015 54.7002 26.3015 53.3002C26.3015 52.0002 24.3016 50.9001 22.0016 50.9001Z" fill="#AD3B41"/>
<path fill-rule="evenodd" clip-rule="evenodd" d="M50.6992 66.4001H57.7992C58.7992 66.4001 59.6992 67.2002 59.6992 68.3002V89.2001C59.6992 90.2001 58.7992 91.0001 57.7992 91.0001H50.6992C50.1992 89.1001 48.4992 87.7001 46.4992 87.7001C44.3992 87.7001 42.6992 89.1001 42.1992 91.0001H19.4992C18.4992 91.0001 17.6992 90.2001 17.6992 89.2001V68.3002C17.6992 67.2002 18.4992 66.4001 19.4992 66.4001H42.1992C42.6992 68.3001 44.3992 69.7001 46.4992 69.7001C48.4992 69.7001 50.1992 68.3001 50.6992 66.4001ZM47.5992 71.4001C47.5992 70.8001 47.0992 70.3002 46.4992 70.3002C45.8992 70.3002 45.3992 70.8001 45.3992 71.4001V86.0001C45.3992 86.6001 45.8992 87.1001 46.4992 87.1001C47.0992 87.1001 47.5992 86.6001 47.5992 86.0001V71.4001Z" fill="white"/>
<path fill-rule="evenodd" clip-rule="evenodd" d="M61.9 68.3002V89.2001C61.9 91.4001 60.1 93.2001 57.8 93.2001H49.7C49.1 93.2001 48.6 92.7001 48.6 92.1001C48.6 90.9001 47.6 90.0001 46.5 90.0001C45.3 90.0001 44.3 90.9001 44.3 92.1001C44.3 92.7001 43.8 93.2001 43.2 93.2001H19.5C17.3 93.2001 15.5 91.4001 15.5 89.2001V68.3002C15.5 66.0002 17.3 64.2001 19.5 64.2001H43.2C43.8 64.2001 44.3 64.7002 44.3 65.3002C44.3 66.5002 45.3 67.5001 46.5 67.5001C47.6 67.5001 48.6 66.5002 48.6 65.3002C48.6 64.7002 49.1 64.2001 49.7 64.2001H57.8C60.1 64.2001 61.9 66.0002 61.9 68.3002ZM59.7 68.3002C59.7 67.2002 58.8 66.4001 57.8 66.4001H50.7C50.2 68.3001 48.5 69.7001 46.5 69.7001C44.4 69.7001 42.7 68.3001 42.2 66.4001H19.5C18.5 66.4001 17.7 67.2002 17.7 68.3002V89.2001C17.7 90.2001 18.5 91.0001 19.5 91.0001H42.2C42.7 89.1001 44.4 87.7001 46.5 87.7001C48.5 87.7001 50.2 89.1001 50.7 91.0001H57.8C58.8 91.0001 59.7 90.2001 59.7 89.2001V68.3002Z" fill="#AD3B41"/>
<path d="M46.5004 70.3002C45.9004 70.3002 45.4004 70.8001 45.4004 71.4001V86.0001C45.4004 86.6001 45.9004 87.1001 46.5004 87.1001C47.1004 87.1001 47.6004 86.6001 47.6004 86.0001V71.4001C47.6004 70.8001 47.1004 70.3002 46.5004 70.3002Z" fill="#AD3B41"/>
<path d="M59.7996 66.4001H57.7996C58.7996 66.4001 59.6996 67.2002 59.6996 68.3002V89.2001C59.6996 90.2001 58.7996 91.0001 57.7996 91.0001H50.6996C50.1996 89.1001 48.4996 87.7001 46.4996 87.7001C44.3996 87.7001 42.6996 89.1001 42.1996 91.0001H19.4996C18.4996 91.0001 17.6996 90.2001 17.6996 89.2001V68.3002C17.6996 67.2002 18.4996 66.4001 19.4996 66.4001H17.5996V91.5001H44.3996C44.6996 90.6001 45.4996 90.0001 46.4996 90.0001C47.3996 90.0001 48.1996 90.6001 48.4996 91.5001H59.7996V66.4001Z" fill="#AD3B41"/>
</svg>
