<svg width="34" height="33" viewBox="0 0 34 33" fill="none" xmlns="http://www.w3.org/2000/svg">
<path fill-rule="evenodd" clip-rule="evenodd" d="M33.8984 16.4001C33.8984 17.8001 33.1984 18.9001 32.4984 19.8001C32.1984 20.3001 31.8984 20.7001 31.7984 21.1001C31.6984 21.5001 31.5984 22.1 31.5984 22.7C31.5984 23.8 31.4984 25.1001 30.7984 26.1001C29.9984 27.2001 28.7984 27.6001 27.6984 28.0001C27.1984 28.2001 26.5984 28.4001 26.2984 28.6001C25.9984 28.9001 25.5984 29.3001 25.2984 29.8001C24.5984 30.7001 23.7984 31.7001 22.4984 32.1001C21.2984 32.5001 20.0984 32.2001 18.9984 31.9001C17.7984 31.5001 16.9984 31.5001 15.7984 31.9001C15.0984 32.1001 14.2984 32.3001 13.4984 32.3001C13.0984 32.3001 12.6984 32.2334 12.2984 32.1001C10.9984 31.7001 10.2984 30.7001 9.59845 29.8001C9.19845 29.3001 8.89844 28.9001 8.49844 28.6001C8.19844 28.4001 7.69845 28.2001 7.09845 28.0001C6.09845 27.6001 4.89845 27.2001 4.09845 26.1001C3.29845 25.1001 3.29844 23.8 3.19844 22.7C3.19844 22.1 3.19845 21.5001 3.09845 21.1001C2.89845 20.7001 2.59845 20.3001 2.29845 19.8001C1.69845 18.9001 0.898438 17.8001 0.898438 16.4001C0.898438 15.1001 1.69845 13.9001 2.29845 13.1001C2.59845 12.6001 2.89845 12.1001 3.09845 11.8001C3.19845 11.4001 3.19844 10.8 3.19844 10.2C3.29844 9.10003 3.29845 7.80003 4.09845 6.70003C4.89845 5.60003 6.09845 5.20013 7.09845 4.80013C7.69845 4.60013 8.19844 4.40003 8.49844 4.20003C8.89844 4.00003 9.19845 3.50005 9.59845 3.10005C10.2984 2.20005 10.9984 1.10003 12.2984 0.700029C13.5984 0.300029 14.7984 0.700078 15.7984 1.00008C16.9984 1.30008 17.7984 1.30008 18.9984 1.00008C20.0984 0.700078 21.2984 0.300029 22.4984 0.700029C23.7984 1.10003 24.5984 2.20005 25.2984 3.10005C25.5984 3.50005 25.9984 4.00003 26.2984 4.20003C26.5984 4.40003 27.1984 4.60013 27.6984 4.80013C28.7984 5.20013 29.9984 5.60003 30.7984 6.70003C31.4984 7.80003 31.5984 9.10003 31.5984 10.2C31.5984 10.8 31.6984 11.4001 31.7984 11.8001C31.8984 12.1001 32.1984 12.6001 32.4984 13.1001C33.1984 13.9001 33.8984 15.1001 33.8984 16.4001ZM30.9984 16.4001C30.9984 16.0001 30.4984 15.3 30.0984 14.7C29.6985 14.1 29.1984 13.4 28.9984 12.7C28.6984 11.9 28.6984 11.0001 28.6984 10.3001C28.6984 9.50013 28.5984 8.8001 28.3984 8.4001C28.0984 8.1001 27.3984 7.80005 26.6984 7.60005C25.9984 7.30005 25.1985 7.10005 24.5984 6.60005C23.8984 6.10005 23.3984 5.40013 22.8984 4.80013C22.4984 4.30013 21.9984 3.60008 21.5984 3.50008C21.1985 3.40008 20.4984 3.60013 19.7984 3.80013C18.3984 4.20013 16.4984 4.20013 14.9984 3.80013C14.4984 3.60013 13.8984 3.50008 13.4984 3.50008C13.3651 3.50008 13.2651 3.50008 13.1984 3.50008C12.7984 3.70008 12.2984 4.30013 11.8984 4.80013C11.3984 5.40013 10.8984 6.10005 10.2984 6.60005C9.59845 7.10005 8.79845 7.30005 8.09845 7.60005C7.39845 7.80005 6.69844 8.1001 6.39844 8.4001C6.19844 8.8001 6.19845 9.50013 6.09845 10.3001C6.09845 11.0001 6.09845 11.9 5.79845 12.7C5.59845 13.4 5.09844 14.1 4.69844 14.7C4.29844 15.3 3.79845 16.0001 3.79845 16.4001C3.79845 16.9001 4.29844 17.5001 4.69844 18.1001C5.09844 18.8001 5.59845 19.4 5.79845 20.2C6.09845 21 6.09845 21.8001 6.09845 22.6001C6.19845 23.3001 6.19844 24.1001 6.39844 24.4001C6.69844 24.7001 7.39845 25 8.09845 25.2C8.79845 25.5 9.59845 25.8001 10.2984 26.3001C10.8984 26.8001 11.3984 27.4001 11.8984 28.0001C12.2984 28.6001 12.7984 29.2001 13.1984 29.3001C13.5984 29.5001 14.2984 29.2001 14.9984 29.0001C16.4984 28.6001 18.3984 28.6001 19.7984 29.0001C20.4984 29.2001 21.1985 29.5001 21.5984 29.3001C21.9984 29.2001 22.4984 28.6001 22.8984 28.0001C23.3984 27.4001 23.8984 26.8001 24.5984 26.3001C25.1985 25.8001 25.9984 25.5 26.6984 25.2C27.3984 25 28.0984 24.7001 28.3984 24.4001C28.5984 24.1001 28.6984 23.3001 28.6984 22.6001C28.6984 21.8001 28.6984 21 28.9984 20.2C29.1984 19.4 29.6985 18.8001 30.0984 18.1001C30.4984 17.5001 30.9984 16.9001 30.9984 16.4001Z" fill="#AD3B41"/>
<path d="M12.7988 14.1001C13.4988 14.1001 14.0988 13.8002 14.5988 13.3002C15.0988 12.9002 15.2988 12.2001 15.2988 11.5001C15.2988 10.9001 15.0988 10.2001 14.5988 9.70007C14.0988 9.30007 13.4988 9.00012 12.7988 9.00012C12.0988 9.00012 11.4988 9.30007 10.9988 9.70007C10.4988 10.2001 10.2988 10.9001 10.2988 11.5001C10.2988 12.2001 10.4988 12.9002 10.9988 13.3002C11.4988 13.8002 12.1988 14.1001 12.7988 14.1001Z" fill="#AD3B41"/>
<path d="M23.7992 19.0001C22.7992 18.0001 21.1992 18.0001 20.1992 19.0001C19.1992 20.0001 19.1992 21.6001 20.1992 22.6001C20.6992 23.1001 21.3992 23.3002 21.9992 23.3002C22.6992 23.3002 23.2992 23.1001 23.7992 22.6001C24.7992 21.6001 24.7992 20.0001 23.7992 19.0001Z" fill="#AD3B41"/>
<path d="M23.6984 9.80022C23.1984 9.20022 22.1984 9.20022 21.6984 9.80022L11.0984 20.4002C10.4984 21.0002 10.4984 21.9002 11.0984 22.5002C11.3984 22.8002 11.6984 22.9002 12.0984 22.9002C12.4984 22.9002 12.8984 22.8002 13.1984 22.5002L23.6984 11.9002C24.2984 11.3002 24.2984 10.4002 23.6984 9.80022Z" fill="#AD3B41"/>
</svg>
