<svg width="31" height="31" viewBox="0 0 31 31" fill="none" xmlns="http://www.w3.org/2000/svg">
<path fill-rule="evenodd" clip-rule="evenodd" d="M30.6985 15.4001C30.6985 23.6001 23.9984 30.3002 15.7984 30.3002C7.59843 30.3002 0.898438 23.6001 0.898438 15.4001C0.898438 7.20015 7.59843 0.500122 15.7984 0.500122C23.9984 0.500122 30.6985 7.20015 30.6985 15.4001ZM27.9984 15.4001C27.9984 8.70015 22.4984 3.20007 15.7984 3.20007C8.99843 3.20007 3.59845 8.70015 3.59845 15.4001C3.59845 22.2001 8.99843 27.7001 15.7984 27.7001C22.4984 27.7001 27.9984 22.2001 27.9984 15.4001Z" fill="#AD3B41"/>
<path d="M22.898 14.1001H17.0981V7.70007C17.0981 6.90007 16.498 6.30017 15.798 6.30017C15.098 6.30017 14.498 6.90007 14.498 7.70007V15.4001C14.498 16.1001 15.098 16.7001 15.798 16.7001H22.898C23.598 16.7001 24.1981 16.1001 24.1981 15.4001C24.1981 14.7001 23.598 14.1001 22.898 14.1001Z" fill="#AD3B41"/>
</svg>
