<svg width="216" height="177" viewBox="0 0 216 177" fill="none" xmlns="http://www.w3.org/2000/svg">
<path d="M108 52.9L116.6 0.199997H99.5L108 52.9Z" fill="white"/>
<path d="M123.5 171.3L107.4 78.3L93.4004 171.5C98.0671 172.167 102.834 172.5 107.7 172.5C113.034 172.5 118.3 172.1 123.5 171.3Z" fill="white"/>
<path d="M214.099 80.4C214.832 75.3333 215.232 70.1667 215.299 64.9C215.232 59.9667 214.899 55.1333 214.299 50.4L121.299 65.4L214.099 80.4Z" fill="white"/>
<path d="M1.09961 50.5C0.432943 55.2333 0.0996094 60.0333 0.0996094 64.9C0.0996094 70.4333 0.499606 75.8333 1.29961 81.1L95.8996 64.8L1.09961 50.5Z" fill="white"/>
<path d="M117.799 74.6L172.599 150.6C180.599 144.6 187.699 137.4 193.699 129.4L117.799 74.6Z" fill="white"/>
<path d="M21.4004 0.599998L100.2 56.2L58.9004 0.199997H21.8004C21.6671 0.33333 21.5337 0.466665 21.4004 0.599998Z" fill="white"/>
<path d="M22.5996 130.7C28.7996 138.7 36.0996 145.8 44.2996 151.8L99.7996 74.9L22.5996 130.7Z" fill="white"/>
<path d="M118.299 57.4L194.399 1.2C194.132 0.866664 193.866 0.53333 193.599 0.199997H158.599L118.299 57.4Z" fill="white"/>
<path d="M137.599 84.6L107.699 85.1L77.8991 84.6C77.8991 84.6 64.1991 120.1 65.0991 142.3C65.9991 162.3 71.0991 171.8 107.699 171.8C147.199 171.8 149.499 162.3 150.399 142.3C151.299 120.1 137.599 84.6 137.599 84.6Z" fill="white"/>
<path fill-rule="evenodd" clip-rule="evenodd" d="M107.7 172.5C71.6001 172.5 65.4001 163.6 64.5001 142.3C63.6001 120.3 77.1001 84.7 77.3001 84.4C77.4001 84.1 77.6001 83.9 77.9001 84L107.8 84.4L137.6 84C137.9 84 138.1 84.1 138.2 84.4C138.3 84.7 151.9 120.3 151 142.3C150.6 152.4 149.8 160 144 165C138 170.2 127.2 172.5 107.7 172.5ZM78.3001 85.3C76.8001 89.3 64.9001 121.8 65.8001 142.3C66.2001 152.2 67.6001 159.3 73.4001 164.1C79.4001 169 90.0001 171.2 107.7 171.2C146.8 171.2 148.9 161.8 149.7 142.3C150.6 121.8 138.7 89.3 137.2 85.3L107.8 85.7L78.3001 85.3Z" fill="#040000"/>
<path d="M84.1004 96.9C82.9004 95.7 81.1004 94.8 79.7004 93.8C78.1004 92.7 73.9004 88.9 72.2004 87.9C67.0004 85 59.0004 87.8 55.2004 90.2C48.9004 94.1 43.7004 99.8 42.1004 107C41.7004 108.6 43.0004 108.1 44.6004 107.7C54.9004 104.7 61.4004 100.2 62.8004 100.7C64.4004 101.4 65.7004 102.6 66.9004 103.8C69.3004 106.1 71.7004 108.2 75.1004 108.9C77.6004 109.5 81.9004 109.9 83.0004 107C83.6004 105.1 84.0004 103.2 84.5004 101.3C85.0004 99.8 85.4004 98.2 84.1004 96.9Z" fill="white"/>
<path d="M146.5 119C177.2 116.2 177.6 69.9 177.6 69.9H152.9L137.5 89.8L146.5 119Z" fill="white"/>
<path d="M147 83.7C147 83.7 135.6 99.1 125 103L117.6 93L147 83.2V83.7Z" fill="#433A3B"/>
<path d="M68.4004 83.7C68.4004 83.7 79.5004 99.1 90.1004 103L97.7004 93L68.4004 83.2V83.7Z" fill="#433A3B"/>
<path d="M145.4 39.6C146.133 31.9333 146.567 24.2667 146.7 16.6C146.8 14.3 146.8 11.9 146.4 9.5C145.8 6.4 144.5 3 141.4 1.5C139.4 0.600001 137.1 0.600004 135 1.3C129.8 2.7 125.4 6.5 121.6 10.1C118.4 13.1 115.3 16.2 112.3 19.4C110.767 19.2 109.233 19.1 107.7 19.1C106.167 19.1 104.633 19.2 103.1 19.4C100.1 16.2 97 13.1 93.8 10.1C90 6.5 85.6 2.7 80.4 1.3C78.3 0.600004 76 0.600001 74 1.5C70.9 3 69.5 6.4 69 9.5C68.6 11.9 68.6 14.3 68.7 16.6C68.8333 24.2667 69.2667 31.9333 70 39.6C65.9 45.6 63.5 52.4 63.5 59.1C63.5 78.9 63.5 94.9 107.7 94.9C151.9 94.9 151.9 78.9 151.9 59.1C151.9 52.4 149.5 45.6 145.4 39.6Z" fill="white"/>
<path d="M140 33.6C140.8 34.2 141.9 33.7 142 32.7C142.4 27.3 142.7 21.9 142.8 16.5C142.8 14.2 142.8 12.2 142.5 10.2C142.1 8.3 141.4 5.9 139.6 5.1C139.133 4.83333 138.567 4.7 137.9 4.7C137.3 4.7 136.7 4.8 136 5C131.6 6.3 127.6 9.7 124.2 13C121.9 15.2 119.4 17.6 116.9 20.1C116.3 20.8 116.6 21.9 117.5 22.2C121 23.4 125.3 25.1 129.5 27.2C133.5 29.2 137.2 31.7 140 33.6Z" fill="white"/>
<path d="M139.5 33.1C139.9 27.4 140.2 21.7 140.3 16.2C140.3 13.5 140.4 11.1 140 9C139.6 6.6 138.8 5.2 138.2 4.9C138.2 4.9 137.9 4.8 137.4 4.8C137 4.8 136.4 4.9 135.9 5.1C135.3 5.23333 134.733 5.43333 134.2 5.7C130.5 7.2 127.1 10.2 124.2 13C121.9 15.2 119.4 17.6 116.9 20.1C116.6 20.5 116.5 21 116.6 21.4C120.6 22.8 124.7 24.6 128.6 26.5C132.6 28.6 136.4 31 139.5 33.1Z" fill="url(#paint0_linear_1_1754)"/>
<path d="M75.4992 33.6C74.6992 34.2 73.5992 33.7 73.4992 32.7C73.0992 27.3 72.7992 21.9 72.6992 16.5C72.6992 14.2 72.6992 12.2 72.9992 10.2C73.2992 8.3 74.0992 5.9 75.7992 5.1C76.2659 4.83333 76.8326 4.7 77.4992 4.7C78.0992 4.7 78.7992 4.8 79.4992 5C83.8992 6.3 87.8992 9.7 91.1992 13C93.5992 15.2 96.0992 17.6 98.4992 20.1C99.1992 20.8 98.8992 21.9 97.9992 22.2C94.4992 23.4 90.1992 25.1 85.8992 27.2C81.9992 29.2 78.2992 31.7 75.4992 33.6Z" fill="white"/>
<path fill-rule="evenodd" clip-rule="evenodd" d="M140.7 34.5C140.3 34.5 139.934 34.4 139.6 34.2C136.8 32.2 133.2 29.8 129.3 27.8C125.3 25.8 121.1 24.1 117.3 22.8C116.6 22.6 116.1 22.1 116 21.5C115.8 20.8 116 20.1 116.5 19.7C119 17.1 121.5 14.7 123.8 12.5C127.2 9.19999 131.3 5.69999 135.8 4.39999C137.4 3.99999 138.9 3.99999 139.9 4.49999C141.9 5.39999 142.8 8.09999 143.1 10.1C143.5 12.1 143.4 14.2 143.4 16.6C143.3 21.9 143 27.3 142.6 32.7C142.6 33.4 142.2 34 141.5 34.3C141.234 34.4333 140.967 34.5 140.7 34.5ZM137.9 5.39999C137.4 5.39999 136.8 5.49999 136.2 5.59999C131.9 6.89999 128 10.3 124.7 13.4C122.3 15.7 119.9 18.1 117.4 20.6C117.2 20.8 117.2 21.1 117.2 21.2C117.3 21.3 117.4 21.5 117.7 21.6C121.5 22.9 125.9 24.6 129.8 26.6C133.8 28.7 137.6 31.2 140.3 33.1C140.6 33.3 140.9 33.2 141 33.2C141.1 33.1 141.3 33 141.3 32.6C141.7 27.2 142 21.8 142.1 16.5C142.2 14.3 142.2 12.2 141.8 10.3C141.4 7.9 140.5 6.19999 139.4 5.59999C139 5.46666 138.5 5.39999 137.9 5.39999Z" fill="#433A3B"/>
<path d="M96.6005 56.2C97.3005 56.4 97.8005 55.7 97.4005 55.2C96.5005 53.5 94.4005 50.9 90.5005 50C86.4005 49.1 83.1005 50.5 81.5005 51.4C81.3005 51.5 81.4005 51.8 81.7005 51.8C83.3005 51.7 86.9005 51.8 89.3005 52.6C92.3005 53.6 94.7005 55.7 96.6005 56.2Z" fill="#433A3B"/>
<path d="M118.8 56.2C118.2 56.4 117.7 55.7 118 55.2C119 53.5 121.1 50.9 125 50C129.1 49.1 132.4 50.5 133.9 51.4C134.2 51.5 134 51.8 133.8 51.8C132.1 51.7 128.6 51.8 126.2 52.6C123.1 53.6 120.7 55.7 118.8 56.2Z" fill="#433A3B"/>
<path d="M96.9 64.1C97.3 64.5 97.8 64.9 98.2 65.3C98.7333 65.6333 99.2666 65.9333 99.8 66.2C100.9 66.6 102 66.7 103.2 66.4C104.3 66.2 105.3 65.7 106.1 64.9C107 64.2 107.6 63.1 108 62.1C108.2 61.8 108.5 61.6 108.9 61.7C109.2 61.9 109.4 62.2 109.2 62.5C108.733 63.8333 108 64.9667 107 65.9C106 66.8 104.7 67.4 103.3 67.5C102 67.7 100.6 67.5 99.4 66.9C98.3 66.3 97.3 65.4 96.7 64.2C96.6 64.2 96.6 64.1 96.7 64C96.8 64 96.9 64 96.9 64V64.1Z" fill="#433A3B"/>
<path d="M118.7 64.2C118.1 65.4 117.1 66.3 116 66.9C114.8 67.5 113.4 67.7 112.1 67.5C110.7 67.4 109.4 66.8 108.4 65.9C107.4 64.9667 106.666 63.8333 106.2 62.5C106 62.2 106.2 61.8 106.5 61.7C106.9 61.6 107.2 61.8 107.4 62.1C107.8 63.1 108.4 64.2 109.3 64.9C110.1 65.7 111.1 66.2 112.2 66.4C113.4 66.7 114.5 66.6 115.6 66.2C116.133 65.9333 116.666 65.6333 117.2 65.3C117.6 64.9 118.1 64.5 118.5 64.1C118.5 64 118.6 64 118.7 64C118.8 64.1 118.8 64.2 118.7 64.2Z" fill="#433A3B"/>
<path d="M110.899 59.7C110.999 60 110.999 60.4 110.799 60.7C110.299 61.6 109.099 63.6 107.699 63.6C106.299 63.6 105.099 61.6 104.599 60.7C104.399 60.4 104.399 60 104.499 59.7C104.799 58.6 106.099 58.6 107.699 58.6C109.199 58.6 110.499 58.6 110.899 59.7Z" fill="url(#paint1_linear_1_1754)"/>
<path d="M110.899 59.7C110.499 58.6 109.199 58.6 107.699 58.6C106.099 58.6 104.799 58.6 104.499 59.7C104.399 60 104.399 60.4 104.599 60.7C104.799 61.1 105.199 61.8 105.699 62.4C105.499 62.1 105.299 61.8 105.199 61.6C104.999 61.3 104.999 61.3 105.099 61C105.399 60.2 106.399 60.2 107.699 60.2C108.999 60.2 109.999 60.2 110.299 61C110.399 61.3 110.399 61.3 110.199 61.6C110.099 61.8 109.899 62.1 109.699 62.4C110.199 61.8 110.599 61.1 110.799 60.7C110.999 60.4 110.999 60 110.899 59.7Z" fill="white"/>
<path fill-rule="evenodd" clip-rule="evenodd" d="M107.7 64.3C106 64.3 104.7 62.3 104 61C103.8 60.5 103.7 60 103.9 59.5C104.4 58 106.1 58 107.7 58C109.2 58 111 58 111.5 59.5C111.7 60 111.6 60.5 111.4 61C110.7 62.3 109.4 64.3 107.7 64.3ZM107.7 59.3C106.3 59.3 105.3 59.3 105.1 59.9C105.033 60.0333 105.067 60.2 105.2 60.4C105.8 61.7 106.8 63 107.7 63C108.6 63 109.6 61.7 110.2 60.4C110.333 60.2 110.367 60.0333 110.3 59.9C110.1 59.3 109.1 59.3 107.7 59.3Z" fill="#433A3B"/>
<path d="M125.001 103.7C124.701 103.7 124.501 103.5 124.401 103.2C124.201 102.9 124.401 102.5 124.701 102.4C135.101 98.6 146.401 83.4 146.501 83.3C146.701 83 147.101 82.9 147.401 83.1C147.701 83.4 147.701 83.8 147.501 84.1C147.101 84.7 135.901 99.7 125.201 103.6C125.134 103.667 125.067 103.7 125.001 103.7Z" fill="#433A3B"/>
<path d="M90.3992 103.7C90.3325 103.7 90.2658 103.667 90.1992 103.6C79.4992 99.7 68.2992 84.7 67.8992 84.1C67.6992 83.8 67.6992 83.4 67.9992 83.1C68.2992 82.9 68.6992 83 68.8992 83.3C68.9992 83.4 80.2992 98.6 90.6992 102.4C90.9992 102.5 91.1992 102.9 90.9992 103.2C90.8992 103.5 90.6992 103.7 90.3992 103.7Z" fill="#433A3B"/>
<path d="M96.9018 43.9C97.3018 45.1 97.6018 46.3 97.8018 47.5C98.0018 48.7 98.2018 50 98.1018 51.2C98.1018 51.3 98.1018 51.4 98.0018 51.4C97.8684 51.3333 97.8018 51.2667 97.8018 51.2C97.4684 50.0667 97.1351 48.9333 96.8018 47.8C96.4018 46.6 96.0018 45.5 95.7018 44.4C95.6018 44 95.8018 43.6 96.1018 43.5C96.4018 43.4 96.8018 43.6 96.9018 43.9Z" fill="#433A3B"/>
<path d="M93.5008 44.6C93.7675 45 94.0008 45.4 94.2008 45.8C94.4008 46.2 94.5675 46.6 94.7008 47C94.9008 47.4 95.0008 47.9 95.1008 48.3C95.1008 48.8 95.2008 49.2 95.1008 49.7C95.1008 49.8 95.0008 49.9 94.9008 49.8C94.8341 49.8 94.8008 49.7667 94.8008 49.7C94.5341 48.9 94.1675 48.1667 93.7008 47.5C93.5008 47.1 93.3008 46.7333 93.1008 46.4C92.9008 46 92.6674 45.6333 92.4008 45.3C92.3008 45 92.4008 44.6 92.7008 44.4C93.0008 44.2 93.4008 44.3 93.5008 44.6Z" fill="#433A3B"/>
<path d="M119.699 44.4C119.399 45.5 118.999 46.6 118.599 47.8C118.199 48.9333 117.866 50.0667 117.599 51.2C117.499 51.3 117.399 51.4 117.399 51.4C117.266 51.3333 117.199 51.2667 117.199 51.2C117.199 50 117.299 48.7 117.499 47.5C117.799 46.3 117.999 45.1 118.499 43.9C118.599 43.6 118.999 43.4 119.299 43.6C119.599 43.7 119.799 44 119.699 44.3V44.4Z" fill="#433A3B"/>
<path d="M122.899 45.3C122.699 45.6333 122.499 46 122.299 46.4C122.099 46.7333 121.866 47.1 121.599 47.5C121.199 48.1667 120.866 48.9 120.599 49.7C120.499 49.8 120.399 49.9 120.299 49.8C120.233 49.8 120.199 49.7667 120.199 49.7C120.199 49.2 120.199 48.8 120.299 48.3C120.399 47.9 120.499 47.4 120.599 47C120.799 46.6 120.999 46.2 121.199 45.8C121.333 45.4 121.533 45 121.799 44.6C121.999 44.3 122.399 44.2 122.699 44.4C122.999 44.6 123.099 45 122.899 45.3Z" fill="#433A3B"/>
<path fill-rule="evenodd" clip-rule="evenodd" d="M107.701 95.5C62.8008 95.5 62.8008 78.7 62.8008 59.1C62.8008 52.5 65.1008 45.7 69.3008 39.4C68.6008 31.8 68.2008 24.1 68.0008 16.6C68.0008 14.2 68.0008 11.8 68.4008 9.4C69.1008 5.2 70.9008 2.3 73.7008 0.900002C75.7008 1.84774e-06 78.1008 -0.100001 80.6008 0.599999C86.0008 2.2 90.5008 6.1 94.3008 9.7C97.6008 12.8 100.501 15.7 103.401 18.7C106.301 18.4 109.101 18.4 112.001 18.7C114.901 15.7 117.801 12.8 121.101 9.7C124.901 6.1 129.401 2.2 134.801 0.599999C137.301 -0.100001 139.701 1.84774e-06 141.701 0.900002C144.501 2.3 146.301 5.2 147.001 9.4C147.401 11.8 147.401 14.2 147.401 16.6C147.201 24.1 146.801 31.8 146.001 39.4C150.301 45.7 152.601 52.5 152.601 59.1C152.601 78.7 152.601 95.5 107.701 95.5ZM77.4008 1.4C76.3008 1.4 75.2008 1.7 74.3008 2.1C71.3008 3.5 70.1008 7 69.6008 9.7C69.3008 11.9 69.3008 14.2 69.3008 16.6C69.5008 24.1 69.9008 31.9 70.7008 39.5C70.7008 39.7 70.6675 39.8333 70.6008 39.9C66.3008 46.1 64.1008 52.7 64.1008 59.1C64.1008 78.8 64.1008 94.3 107.701 94.3C151.301 94.3 151.301 78.8 151.301 59.1C151.301 52.7 149.101 46.1 144.801 39.9C144.734 39.8333 144.701 39.7 144.701 39.5C145.501 31.9 145.901 24.1 146.101 16.6C146.101 14.2 146.101 11.9 145.801 9.7C145.301 7 144.101 3.5 141.101 2.1C139.501 1.3 137.301 1.2 135.101 1.9C130.001 3.4 125.701 7.1 122.001 10.6C118.701 13.8 115.601 16.7 112.801 19.8C112.601 20 112.401 20 112.201 20C109.201 19.7 106.201 19.7 103.201 20C103.001 20 102.801 20 102.601 19.8C99.8008 16.7 96.7008 13.8 93.4008 10.6C89.7008 7.1 85.4008 3.4 80.3008 1.9C79.3008 1.56667 78.3341 1.4 77.4008 1.4Z" fill="#433A3B"/>
<path d="M126.199 109.7C126.199 119.9 117.899 128.2 107.699 128.2C97.4992 128.2 89.1992 119.9 89.1992 109.7C89.1992 99.5 97.4992 91.2 107.699 91.2C117.899 91.2 126.199 99.5 126.199 109.7Z" fill="white"/>
<path d="M106.501 128.1C97.0008 128.1 89.3008 120.4 89.3008 110.9C89.3008 101.4 97.0008 93.7 106.501 93.7C116.001 93.7 123.701 101.4 123.701 110.9C123.701 120.4 116.001 128.1 106.501 128.1Z" fill="#FACE79"/>
<path fill-rule="evenodd" clip-rule="evenodd" d="M107.7 128.9C97.1 128.9 88.5 120.3 88.5 109.7C88.5 99.1 97.1 90.5 107.7 90.5C118.3 90.5 126.9 99.1 126.9 109.7C126.9 120.3 118.3 128.9 107.7 128.9ZM107.7 91.8C97.8 91.8 89.8 99.9 89.8 109.7C89.8 119.5 97.8 127.6 107.7 127.6C117.5 127.6 125.6 119.5 125.6 109.7C125.6 99.9 117.5 91.8 107.7 91.8Z" fill="#433A3B"/>
<path d="M111.9 109.7C111.9 112 110 113.9 107.7 113.9C105.4 113.9 103.5 112 103.5 109.7C103.5 107.4 105.4 105.5 107.7 105.5C110 105.5 111.9 107.4 111.9 109.7Z" fill="#433A3B"/>
<path d="M100.7 109.7C100.5 107.9 101.2 105.9 102.5 104.5C103.1 103.8 104 103.2 104.9 102.8C105.8 102.5 106.7 102.3 107.7 102.3C109.6 102.3 111.6 103.1 112.9 104.5C114.2 105.9 114.9 107.9 114.7 109.7C114.7 109.8 114.6 109.9 114.5 109.9C114.4 109.9 114.3 109.8 114.3 109.7C114.1 108 113.3 106.4 112.1 105.3C110.9 104.2 109.3 103.5 107.7 103.5C106.1 103.5 104.5 104.2 103.3 105.3C102.1 106.4 101.3 108 101.1 109.7C101.1 109.8 101 109.9 100.9 109.9C100.8 109.9 100.7 109.8 100.7 109.7Z" fill="#433A3B"/>
<path d="M107.099 128.2C107.032 126.667 107.032 125.133 107.099 123.6V119L107.299 114.3C107.365 112.767 107.432 111.233 107.499 109.7C107.499 109.6 107.599 109.5 107.699 109.5C107.799 109.5 107.899 109.6 107.899 109.7C107.965 111.233 108.032 112.767 108.099 114.3L108.199 119L108.299 123.6C108.365 125.133 108.365 126.667 108.299 128.2C108.299 128.6 108.099 128.9 107.699 128.9C107.299 128.8 107.099 128.6 107.099 128.2Z" fill="#433A3B"/>
<path d="M113.301 39.3C114.001 38.3 114.601 37.1 115.001 35.6C116.201 31.4 112.001 19.3 112.001 19.3H103.401C103.401 19.3 99.2012 31.4 100.401 35.6C100.801 37.1 101.401 38.3 102.101 39.3C105.101 43.7 110.301 43.7 113.301 39.3Z" fill="#433A3B"/>
<path d="M95.5999 25.5C95.6999 25.4 95.8999 25.6 95.7999 25.8C94.7999 27.3 94.2999 29 93.9999 30.8C93.6999 32.9 94.3999 35.2 93.6999 37.2C93.4999 37.8 92.9999 38.3 92.3999 38.6C90.5999 39.2 89.2999 37.3 89.3999 36C89.5999 31.6 91.2999 27.6 95.5999 25.5Z" fill="#433A3B"/>
<path d="M119.702 25.5C119.502 25.4 119.302 25.6 119.402 25.8C120.402 27.3 121.002 29 121.302 30.8C121.602 32.9 120.802 35.2 121.502 37.2C121.702 37.8 122.202 38.3 122.902 38.6C124.602 39.2 125.902 37.3 125.802 36C125.602 31.6 124.002 27.6 119.702 25.5Z" fill="#433A3B"/>
<path d="M140.501 63C141.501 62.3 142.801 61.9 144.001 61.7C144.734 61.5667 145.467 61.4333 146.201 61.3C148.001 61.0333 149.801 60.8667 151.601 60.8C151.601 63.2 151.501 65.6 151.401 67.9C149.401 67.9 147.434 67.7667 145.501 67.5C143.901 67.2 142.301 67.1 140.901 66.4C140.501 66.2 140.101 65.9 139.801 65.5C139.501 65 139.401 64.4 139.701 63.8C139.801 63.4 140.201 63.2 140.501 63Z" fill="#433A3B"/>
<path d="M148.402 56.8C147.602 56.6 146.902 56.5 146.202 56.2C145.702 56 145.302 55.7 145.202 55.2C144.902 54 146.302 53.2 147.202 52.7C147.535 52.5667 147.901 52.4 148.301 52.2C149.035 51.9333 149.768 51.6333 150.502 51.3C151.035 53.3 151.368 55.2667 151.502 57.2C150.435 57.1333 149.402 57 148.402 56.8Z" fill="#433A3B"/>
<path d="M74.9008 63C73.8008 62.3 72.6008 61.9 71.3008 61.7C70.5674 61.5667 69.8674 61.4333 69.2008 61.3C67.4008 61.0333 65.6008 60.8667 63.8008 60.8C63.8008 63.2 63.9008 65.6 64.0008 67.9C66.0008 67.9 67.9674 67.7667 69.9008 67.5C71.4008 67.2 73.1008 67.1 74.5008 66.4C74.9008 66.2 75.3008 65.9 75.6008 65.5C75.9008 65 76.0008 64.4 75.7008 63.8C75.5008 63.4 75.2008 63.2 74.9008 63Z" fill="#433A3B"/>
<path d="M67.0004 56.8C67.8004 56.6 68.5004 56.5 69.2004 56.2C69.7004 56 70.1004 55.7 70.2004 55.2C70.4004 54 69.1004 53.2 68.2004 52.7C67.8004 52.5667 67.4337 52.4 67.1004 52.2C66.3671 51.9333 65.6337 51.6333 64.9004 51.3C64.3671 53.3 64.0337 55.2667 63.9004 57.2C64.9671 57.1333 66.0004 57 67.0004 56.8Z" fill="#433A3B"/>
<path d="M70.2 74.6C70.1 74.1 69.7 73.7 69.2 73.5C68.5 73.2 67.8 73.1 67 73C66.2 72.8 65.3667 72.6667 64.5 72.6C64.9 74.5 64.7 76.5 65.4 78.1C65.8 78 66.7 77.6 67.1 77.5C67.4333 77.3667 67.8 77.2 68.2 77C69.1 76.6 70.4 75.7 70.2 74.6Z" fill="#433A3B"/>
<path d="M145.202 74.6C145.302 74.1 145.702 73.7 146.202 73.5C146.902 73.2 147.602 73.1 148.402 73C149.202 72.8 150.035 72.6667 150.902 72.6C150.502 74.5 150.702 76.5 150.002 78.1C149.602 78 148.701 77.6 148.301 77.5C147.901 77.3667 147.535 77.2 147.202 77C146.302 76.6 144.902 75.7 145.202 74.6Z" fill="#433A3B"/>
<path d="M75.9001 33.1C75.5001 27.4 75.3001 21.7 75.2001 16.2C75.1001 13.5 75.1001 11.1 75.5001 9C75.9001 6.6 76.7001 5.2 77.3001 4.9C77.3001 4.9 77.6001 4.8 78.0001 4.8C78.5001 4.8 79.1001 4.9 79.6001 5.1C80.1334 5.23333 80.6668 5.43333 81.2001 5.7C85.0001 7.2 88.3001 10.2 91.2001 13C93.6001 15.2 96.1001 17.6 98.5001 20.1C98.9001 20.5 99.0001 21 98.8001 21.4C94.9001 22.8 90.8001 24.6 86.9001 26.5C82.9001 28.6 79.1001 31 75.9001 33.1Z" fill="url(#paint2_linear_1_1754)"/>
<path fill-rule="evenodd" clip-rule="evenodd" d="M74.8005 34.5C74.4671 34.5 74.1671 34.4333 73.9005 34.3C73.3005 34 72.9005 33.4 72.8005 32.7C72.4005 27.3 72.2005 21.9 72.1005 16.6C72.0005 14.2 72.0005 12.1 72.4005 10.1C72.7005 8.09999 73.6005 5.39999 75.5005 4.49999C76.6005 3.99999 78.1005 3.99999 79.7005 4.39999C84.2005 5.69999 88.3005 9.19999 91.7005 12.5C94.0005 14.7 96.5005 17.1 99.0005 19.7C99.5005 20.1 99.7005 20.8 99.5005 21.5C99.3005 22.1 98.9005 22.6 98.2005 22.8C94.4005 24.1 90.1005 25.8 86.2005 27.8C82.3005 29.8 78.6005 32.2 75.9005 34.2C75.5671 34.4 75.2005 34.5 74.8005 34.5ZM77.5005 5.39999C76.9671 5.39999 76.5005 5.46666 76.1005 5.59999C74.9005 6.19999 74.1005 7.9 73.6005 10.3C73.3005 12.2 73.3005 14.3 73.4005 16.5C73.5005 21.8 73.7005 27.2 74.1005 32.6C74.2005 33 74.4005 33.1 74.5005 33.2C74.6005 33.2 74.9005 33.3 75.1005 33.1C77.9005 31.2 81.6005 28.7 85.6005 26.6C89.6005 24.6 93.9005 22.9 97.8005 21.6C98.1005 21.5 98.2005 21.3 98.2005 21.2C98.3005 21.1 98.3005 20.8 98.1005 20.6C95.6005 18.1 93.2005 15.7 90.8005 13.4C87.5005 10.3 83.6005 6.89999 79.3005 5.59999C78.7005 5.49999 78.1005 5.39999 77.5005 5.39999Z" fill="#433A3B"/>
<path d="M94.6995 23.4C94.2995 22.9 93.8995 22.4 93.5995 21.8C93.1995 21.2667 92.7995 20.7333 92.3995 20.2C91.5328 19.2 90.6329 18.2 89.6995 17.2C88.7662 16.2667 87.7995 15.3667 86.7995 14.5L85.9995 13.9L85.1995 13.3C84.6995 12.9 84.0995 12.5 83.4995 12.2C83.4995 12.1 83.3995 12 83.4995 11.9C83.5662 11.8333 83.6329 11.8 83.6995 11.8C84.8995 12.4 86.1995 13.1 87.2995 13.9C88.4329 14.7 89.4995 15.5667 90.4995 16.5C91.4995 17.4333 92.4328 18.4 93.2995 19.4C94.1995 20.5 94.9995 21.6 95.7995 22.8C95.9995 23.1 95.8995 23.5 95.5995 23.7C95.2995 23.9 94.8995 23.8 94.6995 23.5V23.4Z" fill="#433A3B"/>
<path d="M119.6 22.8C120.4 21.6 121.2 20.5 122.1 19.4C122.967 18.4 123.9 17.4333 124.9 16.5C125.9 15.5667 126.967 14.7 128.1 13.9C129.2 13.1 130.5 12.4 131.7 11.8C131.8 11.8 131.9 11.8 131.9 11.9C131.967 12.0333 131.967 12.1 131.9 12.1C131.3 12.5 130.7 12.9 130.2 13.3L129.4 13.9L128.6 14.5C127.6 15.3667 126.633 16.2667 125.7 17.2C124.767 18.2 123.867 19.2 123 20.2C122.6 20.7333 122.2 21.2667 121.8 21.8C121.4 22.4 121.1 22.9 120.7 23.4C120.5 23.8 120.1 23.9 119.8 23.7C119.5 23.5 119.4 23.1 119.6 22.8Z" fill="#433A3B"/>
<path d="M134.201 63.2C134.201 65.3 131.501 66.9 128.201 66.9C125.001 66.9 122.301 65.3 122.301 63.2C122.301 61.2 125.001 59.6 128.201 59.6C131.501 59.6 134.201 61.2 134.201 63.2Z" fill="url(#paint3_linear_1_1754)"/>
<path d="M93.2004 63.2C93.2004 65.3 90.6004 66.9 87.3004 66.9C84.0004 66.9 81.4004 65.3 81.4004 63.2C81.4004 61.2 84.0004 59.6 87.3004 59.6C90.6004 59.6 93.2004 61.2 93.2004 63.2Z" fill="url(#paint4_linear_1_1754)"/>
<path d="M82.9004 63.6C82.9004 61.6 85.5004 60 88.8004 60C89.3337 60 89.8671 60.0333 90.4004 60.1C89.5004 59.8 88.4004 59.6 87.3004 59.6C84.0004 59.6 81.4004 61.2 81.4004 63.2C81.4004 64.9 83.2004 66.3 85.7004 66.8C84.0004 66.1 82.9004 65 82.9004 63.6Z" fill="white"/>
<path d="M132.699 63.6C132.699 61.6 129.999 60 126.799 60C126.199 60 125.666 60.0333 125.199 60.1C126.099 59.8 127.099 59.6 128.199 59.6C131.499 59.6 134.199 61.2 134.199 63.2C134.199 64.9 132.299 66.3 129.799 66.8C131.499 66.1 132.699 65 132.699 63.6Z" fill="white"/>
<path fill-rule="evenodd" clip-rule="evenodd" d="M128.199 67.5C124.599 67.5 121.699 65.7 121.699 63.2C121.699 60.8 124.599 59 128.199 59C131.899 59 134.799 60.8 134.799 63.2C134.799 65.7 131.899 67.5 128.199 67.5ZM128.199 60.2C125.399 60.2 122.999 61.6 122.999 63.2C122.999 64.9 125.399 66.2 128.199 66.2C131.099 66.2 133.499 64.9 133.499 63.2C133.499 61.6 131.099 60.2 128.199 60.2Z" fill="#433A3B"/>
<path fill-rule="evenodd" clip-rule="evenodd" d="M87.3008 67.5C83.6008 67.5 80.8008 65.7 80.8008 63.2C80.8008 60.8 83.6008 59 87.3008 59C91.0008 59 93.9008 60.8 93.9008 63.2C93.9008 65.7 91.0008 67.5 87.3008 67.5ZM87.3008 60.2C84.5008 60.2 82.1008 61.6 82.1008 63.2C82.1008 64.9 84.5008 66.2 87.3008 66.2C90.2008 66.2 92.6008 64.9 92.6008 63.2C92.6008 61.6 90.2008 60.2 87.3008 60.2Z" fill="#433A3B"/>
<path d="M147.899 119.3C147.499 119.3 147.299 119.1 147.199 118.7C147.199 118.4 147.499 118.1 147.799 118C174.299 115.6 177.099 69.8 177.199 69.4C177.199 69 177.499 68.7 177.799 68.8C178.199 68.8 178.499 69.1 178.399 69.4C178.399 69.6 177.799 81.4 173.699 93.3C168.299 109.3 159.399 118.3 147.899 119.3Z" fill="#433A3B"/>
<path d="M142.3 103.7C143.9 106.4 145.2 109.2 146.3 112.1C146.9 113.567 147.433 115.067 147.9 116.6C148.3 118.133 148.633 119.667 148.9 121.2C149 121.5 148.7 121.9 148.4 121.9C148 122 147.7 121.8 147.6 121.4C147.333 119.933 147 118.433 146.6 116.9C146.2 115.433 145.767 113.967 145.3 112.5C144.833 111.033 144.3 109.6 143.7 108.2C143.167 106.733 142.6 105.3 142 103.9C142 103.8 142 103.7 142.1 103.6C142.2 103.6 142.3 103.6 142.3 103.7Z" fill="#040000"/>
<path d="M174.7 55.8C170.2 52.5 163.5 51.8 158.1 53.1C154.3 54.1 150.1 56.2 148.2 59.8C146.1 63.4 146.7 68.8 149.8 71.7C151.9 73.6 155 74 157.4 72.8C158.2 74.6 159.8 76 162 76.2C164.6 76.5 166.5 75.2 167.9 73.2C169 74.2 170.5 74.6 172 74.4C174.6 74.1 176.6 72.1 177.6 69.9C179.7 65.2 179 58.9 174.7 55.8Z" fill="white"/>
<path d="M171.099 75.1C169.799 75.1 168.699 74.7 167.699 73.9C167.399 73.7 167.399 73.3 167.599 73C167.799 72.7 168.299 72.7 168.499 72.9C169.499 73.7 170.499 73.9 171.899 73.8C174.099 73.5 175.999 71.9 176.999 69.6C178.899 65.4 178.599 59.4 174.299 56.3C170.299 53.4 163.799 52.4 158.299 53.7C153.799 54.8 150.299 57.2 148.699 60.1C146.799 63.6 147.499 68.7 150.199 71.2C152.199 73 154.699 73.4 156.799 72.3C157.099 72.2 157.499 72.3 157.599 72.6C157.799 72.9 157.699 73.3 157.399 73.5C154.799 74.8 151.699 74.3 149.399 72.2C146.099 69.2 145.299 63.5 147.599 59.5C149.399 56.2 153.199 53.7 157.999 52.5C163.899 51 170.699 52.1 175.099 55.3C179.899 58.7 180.299 65.5 178.199 70.1C176.999 72.9 174.699 74.7 172.099 75C171.766 75.0667 171.433 75.1 171.099 75.1Z" fill="#433A3B"/>
<path d="M155.4 61C155.4 62.4 155.5 63.9 155.7 65.4C155.9 66.8 156.3 68.2 156.8 69.5C157.3 70.8 158 72.1 159 73C159.533 73.4 160.1 73.7333 160.7 74C161.366 74.2667 162.033 74.4 162.7 74.4C163.366 74.4667 164.033 74.4 164.7 74.2C165.3 74 165.866 73.7 166.4 73.3C167.4 72.4 168.1 71.2 168.6 69.9C169.2 68.5 169.5 67.1 169.7 65.7C169.9 64.2 170 62.7 170 61.3C170 61.2 170.1 61.1 170.3 61.1C170.4 61.1 170.4 61.2 170.5 61.3C170.7 64.2 170.6 67.3 169.7 70.2C169.2 71.7 168.4 73.1 167.2 74.2C166.6 74.7 165.8 75.2 165 75.4C164.2 75.7 163.4 75.7 162.6 75.7C161.8 75.6333 161.033 75.4667 160.3 75.2C159.5 74.9 158.8 74.5 158.2 73.9C157 72.8 156.2 71.4 155.7 69.9C154.8 67 154.6 63.9 154.9 61C154.9 60.8 155 60.7 155.2 60.7C155.3 60.8 155.4 60.9 155.4 61Z" fill="#433A3B"/>
<path d="M59.6999 89.9C54.0999 90 48.2999 93.5 44.8999 97.8C42.3999 100.9 40.3999 105.1 40.9999 109.2C41.5999 113.3 45.3999 117.3 49.5999 117.6C52.3999 117.9 55.0999 116.4 56.1999 113.9C57.9999 114.8 59.6999 114 61.4999 112.9C63.7999 111.6 64.9999 110.2 64.8999 107.9C66.2999 107.9 67.7999 107.3 68.8999 106.3C70.6999 104.4 71.0999 101.7 70.4999 99.3C69.3999 94.3 64.9999 89.7 59.6999 89.9Z" fill="white"/>
<path d="M50.2999 118.3C50.0333 118.3 49.7666 118.3 49.4999 118.3C45.1999 117.9 41.0999 113.9 40.3999 109.3C39.8999 105.6 41.2999 101.3 44.3999 97.4C46.2999 95 49.9999 92 52.1999 90.9C57.3999 88 63.1999 85.3 71.8999 86.4C72.1999 86.5 72.4999 86.8 72.3999 87.2C72.3999 87.5 72.0999 87.8 71.6999 87.7C63.3999 86.7 57.9999 89.1 52.7999 92C50.7999 93.1 47.1999 96 45.3999 98.2C42.4999 101.8 41.1999 105.8 41.6999 109.1C42.2999 113.1 45.8999 116.7 49.6999 117C52.2999 117.2 54.4999 116.1 55.4999 113.9C55.6999 113.6 55.9999 113.5 56.3999 113.6C56.6999 113.8 56.7999 114.2 56.6999 114.5C55.5999 116.9 53.1999 118.3 50.2999 118.3Z" fill="#433A3B"/>
<path d="M65.2008 107.2C66.0674 107.267 66.8675 107.033 67.6008 106.5C67.9341 106.3 68.2341 106.033 68.5008 105.7C68.8341 105.367 69.1008 105 69.3008 104.6C70.2008 103.1 70.4008 101.2 70.0008 99.4C69.6008 97.6 68.8008 95.9 67.7008 94.4C66.6008 92.9 65.2008 91.6 63.4008 90.8C63.3008 90.7 63.3008 90.6 63.3008 90.5C63.4008 90.4 63.5008 90.4 63.6008 90.4C65.4008 91.1 67.1008 92.3 68.4008 93.9C69.6008 95.4 70.6008 97.2 71.1008 99.2C71.6008 101.2 71.5008 103.4 70.4008 105.3C70.1341 105.767 69.8341 106.2 69.5008 106.6C69.1674 107 68.7674 107.333 68.3008 107.6C67.4008 108.2 66.2008 108.6 65.2008 108.5C64.8008 108.5 64.5008 108.2 64.5008 107.8C64.5008 107.5 64.8008 107.2 65.2008 107.2Z" fill="#433A3B"/>
<path d="M47.5 105.8C48.4 106.9 49.4 108 50.5 109C51.6 110 52.7 111 54 111.7C55.2 112.4 56.5 113 57.9 113.1C58.6 113.1 59.2 113.1 59.9 112.9C60.5 112.7 61.1 112.4 61.7 112C62.3 111.6 62.8 111.2 63.2 110.7C63.5333 110.1 63.7667 109.5 63.9 108.9C64.2 107.5 64 106.1 63.6 104.7C63.2 103.4 62.5 102 61.8 100.8C61.1 99.5 60.2 98.2 59.3 97.1C59.3 97 59.3 96.8 59.4 96.8C59.4 96.7 59.6 96.7 59.6 96.8C61.7 99 63.5 101.5 64.6 104.4C65.2 105.8 65.5 107.5 65.2 109.1C65 109.9 64.7 110.7 64.2 111.4C63.7 112.1 63.1 112.6 62.4 113.1C61.7333 113.567 61 113.9 60.2 114.1C59.4 114.4 58.6 114.4 57.8 114.3C56.1 114.2 54.6 113.5 53.4 112.6C50.8 110.9 48.7 108.6 47.1 106C47 105.9 47.1 105.8 47.2 105.7C47.3 105.7 47.4 105.7 47.5 105.8Z" fill="#433A3B"/>
<path d="M158.1 144C156.9 137.4 153.7 128.7 143.8 128.2C139.5 128.1 134.8 128.8 131.7 131.3C129 133.5 127.7 136.5 126.9 139.5C125.5 144.4 124.8 149.5 124.7 154.5C124.6 157.8 124.4 161.3 124.8 164.7C124.1 167.7 125.1 171.2 127.9 173.2C130.2 174.8 133.6 175.2 136.2 174C137.2 175.6 139 176.5 141.3 176.6C144.2 176.9 146.3 175.7 147.7 173.9C149 174.7 150.7 175.3 152.4 175.1C155.2 174.7 157.3 173 158.4 170.9C159.4 168.9 158.8 147.8 158.1 144Z" fill="white"/>
<path d="M151.4 175.8C150 175.8 148.6 175.4 147.4 174.7C147.1 174.5 147 174.1 147.2 173.8C147.4 173.5 147.8 173.4 148.1 173.6C149.3 174.3 150.8 174.7 152.3 174.5C154.7 174.2 156.7 172.7 157.8 170.6C158.4 169.5 159.2 167.1 158.3 163.7C157.5 160.7 157.6 154.9 157.6 150.1C157.6 147.4 157.6 145 157.5 144.1C155.7 134.3 151.1 129.2 143.8 128.9C140.9 128.8 135.6 129 132.1 131.8C129.3 134 128.1 137.4 127.5 139.6C126.2 144.4 126.1 148 126 152.9L125.9 153.2C125.9 154 125.9 154.833 125.9 155.7C125.9 158.2 125.9 160.9 125.3 163.5C124.2 168.9 126 171.1 128.2 172.7C130.4 174.2 133.5 174.5 135.9 173.4C136.3 173.2 136.6 173.4 136.8 173.7C136.9 174 136.8 174.4 136.5 174.6C133.6 175.9 130 175.5 127.5 173.7C124.1 171.3 123 168.1 124.1 163.2C124.6 160.8 124.6 158.2 124.6 155.7C124.6 154.833 124.634 153.967 124.7 153.1V152.9C124.8 147.9 124.9 144.2 126.2 139.3C126.9 136.8 128.2 133.3 131.3 130.8C135.1 127.7 140.8 127.5 143.8 127.6C151.7 127.9 156.9 133.6 158.7 143.8C158.9 144.8 158.9 147.2 158.9 150.1C158.9 154.8 158.8 160.6 159.6 163.4C160.6 167.2 159.6 169.9 159 171.2C157.7 173.7 155.2 175.4 152.5 175.7C152.1 175.767 151.734 175.8 151.4 175.8Z" fill="#433A3B"/>
<path d="M130.401 160.2C132.201 159.3 134.201 158.6 136.201 158.1C138.201 157.633 140.234 157.433 142.301 157.5C144.301 157.5 146.401 157.9 148.401 158.5C148.867 158.7 149.334 158.9 149.801 159.1L151.201 159.7C151.401 159.833 151.634 159.967 151.901 160.1L152.501 160.5C152.901 160.833 153.334 161.133 153.801 161.4C153.901 161.5 153.901 161.6 153.801 161.7C153.801 161.8 153.601 161.8 153.601 161.7C153.134 161.5 152.667 161.3 152.201 161.1L151.501 160.8C151.301 160.667 151.067 160.567 150.801 160.5L149.501 160L148.001 159.6C146.101 159.1 144.201 158.8 142.201 158.8C140.267 158.733 138.334 158.867 136.401 159.2C135.401 159.4 134.434 159.6 133.501 159.8C132.501 160 131.501 160.3 130.601 160.6C130.501 160.7 130.301 160.6 130.301 160.5C130.301 160.4 130.301 160.3 130.401 160.2Z" fill="#433A3B"/>
<path d="M160.3 100.3C160.6 101.3 161.2 102 161.8 102.7C162.2 103.033 162.566 103.367 162.9 103.7C163.9 104.6 165.6 106 166.6 106.7C167.8 104.5 169.2 102.2 170.3 100.2C169.1 99.5 166.9 98.6 165.6 98.2C164.5 97.8 163.5 97.4 162.3 97.5C161.9 97.5 161.6 97.6 161.2 97.9C160.7 98.2 160.4 98.8 160.3 99.4C160.2 99.7 160.2 100.1 160.3 100.3Z" fill="#433A3B"/>
<path d="M160.801 107.7C160.101 107.5 159.301 107.2 158.601 107.1C158.101 107.1 157.501 107.2 157.201 107.6C156.401 108.4 157.201 109.9 157.701 110.6C157.967 111 158.234 111.367 158.501 111.7C158.967 112.3 159.434 112.933 159.901 113.6C161.401 112.1 163.301 110.9 164.401 109.2C163.401 108.8 161.801 108.1 160.801 107.7Z" fill="#433A3B"/>
<path d="M166.799 90.7C166.699 91.2 166.899 91.7 167.199 92.1C167.599 92.7 168.199 93.2 168.799 93.7C169.399 94.2 171.299 95.6 171.999 96.1C172.699 94.3 173.799 91.9 173.999 90.1C173.699 90.1 171.399 89.8 170.999 89.7C170.599 89.6333 170.199 89.6 169.799 89.6C168.799 89.5 167.199 89.6 166.799 90.7Z" fill="#433A3B"/>
<path d="M140.601 138.6C139.901 137.9 139.501 137.1 139.301 136.2C139.167 135.733 139.034 135.267 138.901 134.8C138.601 133.6 138.401 129.6 138.301 128.4C140.767 128.333 143.134 128.367 145.401 128.5C145.401 129.8 145.301 133.9 145.001 135.3C144.801 136.3 144.701 137.4 144.001 138.4C143.801 138.6 143.501 138.9 143.101 139.1C142.601 139.3 141.901 139.4 141.401 139.2C141.001 139.1 140.801 138.9 140.601 138.6Z" fill="#433A3B"/>
<path d="M134.3 135.7C134.2 136.5 134.1 137.2 133.8 137.9C133.6 138.4 133.2 138.8 132.7 138.9C131.6 139.2 130.7 137.8 130.3 136.9C130.167 136.567 130 136.2 129.8 135.8C129.467 135.067 129.167 134.333 128.9 133.6C130.8 133 132.8 129.9 134.8 129.8C134.7 130.8 134.5 134.7 134.3 135.7Z" fill="#433A3B"/>
<path d="M152.201 138.9C151.701 138.8 151.301 138.4 151.101 137.9C150.801 137.2 150.701 136.5 150.501 135.7C150.401 134.9 150.301 131.1 150.201 130.3C152.101 130.6 155.201 135.4 155.101 135.8C154.901 136.2 154.734 136.567 154.601 136.9C154.201 137.8 153.301 139.2 152.201 138.9Z" fill="#433A3B"/>
<path d="M57.2999 144C58.4999 137.4 61.6999 128.7 71.5999 128.2C75.8999 128.1 80.5999 128.8 83.6999 131.3C86.3999 133.5 87.6999 136.5 88.4999 139.5C89.8999 144.4 90.4999 149.5 90.6999 154.5C90.7999 157.8 90.9999 161.3 90.5999 164.7C91.2999 167.7 90.2999 171.2 87.4999 173.2C85.1999 174.8 81.7999 175.2 79.1999 174C78.1999 175.6 76.3999 176.5 74.0999 176.6C71.1999 176.9 69.0999 175.7 67.6999 173.9C66.3999 174.7 64.6999 175.3 62.9999 175.1C60.1999 174.7 58.0999 173 56.9999 170.9C55.9999 168.9 56.5999 147.8 57.2999 144Z" fill="white"/>
<path d="M63.9999 175.8C63.6666 175.8 63.2999 175.767 62.8999 175.7C60.0999 175.4 57.6999 173.7 56.3999 171.2C55.7999 169.9 54.8 167.2 55.8 163.4C56.6 160.6 56.4999 154.8 56.4999 150.1C56.4999 147.2 56.4999 144.8 56.6999 143.8C58.4999 133.6 63.7 127.9 71.6 127.6C74.6 127.5 80.3 127.7 84.1 130.8C87.2 133.3 88.4999 136.8 89.1999 139.3C90.4999 144.2 90.5999 147.9 90.6999 152.9V153.1C90.7666 153.967 90.8 154.833 90.8 155.7C90.8 158.2 90.8 160.8 91.3 163.2C92.4 168.1 91.2999 171.3 87.8999 173.7C85.3999 175.5 81.7999 175.9 78.8999 174.6C78.5999 174.4 78.5 174 78.6 173.7C78.8 173.4 79.1 173.2 79.5 173.4C81.7999 174.5 85 174.2 87.1 172.7C89.4 171.1 91.2 168.9 90.1 163.5C89.5 160.9 89.5 158.2 89.5 155.7C89.5 154.833 89.4666 154 89.3999 153.2V152.9C89.2999 148 89.1999 144.4 87.8999 139.6C87.2999 137.4 86.1 134 83.3 131.8C79.8 129 74.5 128.8 71.6 128.9C64.3 129.2 59.6999 134.3 57.8999 144.1C57.7999 145 57.8 147.4 57.8 150.1C57.8 154.9 57.9 160.7 57.1 163.7C56.2 167.1 57 169.5 57.6 170.6C58.7 172.7 60.7 174.2 63.1 174.5C64.6 174.7 66.1 174.3 67.3 173.6C67.6 173.4 67.9999 173.5 68.1999 173.8C68.3999 174.1 68.2999 174.5 67.9999 174.7C66.7999 175.4 65.3999 175.8 63.9999 175.8Z" fill="#433A3B"/>
<path d="M84.7991 160.6C83.8991 160.3 82.8991 160 81.8991 159.8C80.9658 159.6 79.9991 159.4 78.9991 159.2C77.0658 158.867 75.1325 158.733 73.1991 158.8C71.1991 158.8 69.2991 159.1 67.3991 159.6L65.8991 160L64.5991 160.5C64.3325 160.567 64.0991 160.667 63.8991 160.8L63.1991 161.1C62.7325 161.3 62.2991 161.5 61.8991 161.7C61.6991 161.8 61.5991 161.7 61.5991 161.6C61.4991 161.6 61.5991 161.5 61.5991 161.4C62.0658 161.133 62.4991 160.833 62.8991 160.5L63.4991 160.1C63.7658 159.967 63.9991 159.833 64.1991 159.7L65.5991 159.1C66.0658 158.9 66.5325 158.7 66.9991 158.5C68.9991 157.9 71.0991 157.5 73.0991 157.5C75.1658 157.433 77.1991 157.633 79.1991 158.1C81.1991 158.6 83.1991 159.3 84.9991 160.2C85.0991 160.3 85.0991 160.4 85.0991 160.5C84.9991 160.6 84.8991 160.7 84.7991 160.6Z" fill="#433A3B"/>
<path d="M74.8 138.6C75.5 137.9 75.9 137.1 76.1 136.2C76.2333 135.733 76.3667 135.267 76.5 134.8C76.8 133.6 77 129.6 77.1 128.4C74.6333 128.333 72.2667 128.367 70 128.5C70 129.8 70.1 133.9 70.4 135.3C70.6 136.3 70.7 137.4 71.4 138.4C71.6 138.6 71.9 138.9 72.3 139.1C72.8 139.3 73.5 139.4 74 139.2C74.4 139.1 74.6 138.9 74.8 138.6Z" fill="#433A3B"/>
<path d="M81.0996 135.7C81.1996 136.5 81.2996 137.2 81.5996 137.9C81.7996 138.4 82.1996 138.8 82.6996 138.9C83.7996 139.2 84.6996 137.8 85.0996 136.9C85.2329 136.567 85.3996 136.2 85.5996 135.8C85.9329 135.067 86.2329 134.333 86.4996 133.6C84.5996 133 82.5996 129.9 80.5996 129.8C80.6996 130.8 80.8996 134.7 81.0996 135.7Z" fill="#433A3B"/>
<path d="M63.1992 138.9C63.6992 138.8 64.0992 138.4 64.2992 137.9C64.5992 137.2 64.6992 136.5 64.7992 135.7C64.9992 134.9 65.0992 131.1 65.1992 130.3C63.2992 130.6 60.1992 135.4 60.2992 135.8C60.4992 136.2 60.6659 136.567 60.7992 136.9C61.1992 137.8 62.0992 139.2 63.1992 138.9Z" fill="#433A3B"/>
<path d="M81.9002 166.5C81.9002 168.9 81.4002 171.4 80.0002 173.5C79.4002 174.6 78.4002 175.6 77.2002 176.2C76.1002 176.8 74.7002 176.9 73.5002 176.9C72.9002 176.8 72.2003 176.8 71.6003 176.6C71.0003 176.4 70.4002 176.3 69.8002 176C69.2002 175.7 68.7002 175.3 68.2002 175L67.5002 174.3C67.3002 174.1 67.1002 173.8 66.9002 173.5C65.4002 171.4 65.0002 168.9 65.2002 166.5C65.2002 166.4 65.3002 166.3 65.4002 166.3C65.5002 166.3 65.6003 166.4 65.6003 166.5C65.7003 168.8 66.4002 171.2 67.8002 172.9C67.9002 173.1 68.1002 173.3 68.3002 173.5L68.9002 174.1C69.4002 174.3 69.8002 174.7 70.3002 174.9C70.8002 175.1 71.4002 175.2 71.9002 175.4C72.4002 175.5 73.0002 175.5 73.5002 175.6C74.6002 175.6 75.7002 175.5 76.7002 175C77.7002 174.6 78.5002 173.8 79.1003 172.9C79.8003 172 80.2003 171 80.6003 169.9C81.0002 168.8 81.2002 167.6 81.4002 166.5C81.4002 166.4 81.5002 166.3 81.7002 166.3C81.8002 166.3 81.9002 166.4 81.9002 166.5Z" fill="#433A3B"/>
<path d="M134 166.5C134.2 167.6 134.4 168.8 134.8 169.9C135.2 171 135.6 172 136.3 172.9C136.9 173.8 137.7 174.6 138.7 175C139.7 175.5 140.8 175.6 141.9 175.6C142.4 175.5 143 175.5 143.5 175.4C144 175.2 144.6 175.1 145.1 174.9C145.6 174.7 146 174.3 146.5 174.1L147.1 173.5C147.3 173.3 147.4 173.1 147.6 172.9C149 171.2 149.7 168.8 149.8 166.5C149.8 166.4 149.9 166.3 150 166.3C150.1 166.3 150.2 166.4 150.2 166.5C150.4 168.9 150 171.4 148.5 173.5C148.3 173.8 148.1 174.1 147.9 174.3L147.2 175C146.7 175.3 146.2 175.7 145.6 176C145 176.3 144.4 176.4 143.8 176.6C143.2 176.8 142.5 176.8 141.9 176.9C140.7 176.9 139.3 176.8 138.2 176.2C137 175.6 136 174.6 135.4 173.5C134 171.4 133.5 168.9 133.5 166.5C133.5 166.4 133.6 166.3 133.8 166.3C133.9 166.3 134 166.4 134 166.5Z" fill="#433A3B"/>
<path d="M80.9992 103.9C80.5992 103.2 80.7992 102.2 81.4992 101.8L80.0992 99.6C79.7992 99.9 79.2992 99.9 78.8992 99.8L25.8992 133.1C25.7992 133.5 25.5992 133.8 25.1992 134.1L26.5992 136.2C27.2992 135.8 28.1992 136 28.6992 136.7C29.0992 137.4 28.8992 138.4 28.1992 138.8L29.4992 141C30.2992 140.5 31.1992 140.7 31.5992 141.4C32.0992 142.2 31.8992 143.1 31.1992 143.6L32.4992 145.7C33.1992 145.3 34.1992 145.5 34.5992 146.2C35.0992 146.9 34.7992 147.8 34.0992 148.3L35.4992 150.5C36.1992 150 37.0992 150.2 37.5992 150.9C37.9992 151.7 37.7992 152.6 37.0992 153L38.4992 155.2C39.1992 154.8 40.0992 155 40.5992 155.7C40.9992 156.4 40.7992 157.3 40.0992 157.8L41.3992 159.9C41.7992 159.7 42.1992 159.7 42.5992 159.8L95.6992 126.5C95.7992 126.1 95.9992 125.7 96.3992 125.5L94.9992 123.3C94.2992 123.8 93.3992 123.6 92.8992 122.9C92.4992 122.2 92.6992 121.2 93.3992 120.8L91.9992 118.6C91.2992 119.1 90.3992 118.8 89.8992 118.1C89.4992 117.4 89.6992 116.5 90.3992 116L89.0992 113.9C88.3992 114.3 87.3992 114.1 86.9992 113.4C86.4992 112.7 86.6992 111.7 87.3992 111.3L86.0992 109.1C85.3992 109.6 84.3992 109.3 83.9992 108.6C83.4992 107.9 83.7992 107 84.4992 106.5L83.0992 104.4C82.3992 104.8 81.4992 104.6 80.9992 103.9Z" fill="#FACE79" stroke="#433A3B" stroke-width="1.5" stroke-miterlimit="10"/>
<path d="M86.9992 113.4C86.4992 112.7 86.6992 111.7 87.3992 111.3L86.0992 109.1C85.3992 109.6 84.3992 109.3 83.9992 108.6C83.4992 107.9 83.7992 107 84.4992 106.5L83.0992 104.4C82.3992 104.8 81.4992 104.6 80.9992 103.9C80.5992 103.2 80.7992 102.2 81.4992 101.8L80.0992 99.6C79.7992 99.9 79.2992 99.9 78.8992 99.8L25.8992 133.1C25.7992 133.5 25.5992 133.8 25.1992 134.1L26.5992 136.2C27.2992 135.8 28.1992 136 28.6992 136.7C29.0992 137.4 28.8992 138.4 28.1992 138.8L29.4992 141C30.2992 140.5 31.1992 140.7 31.5992 141.4C32.0992 142.2 31.8992 143.1 31.1992 143.6L32.4992 145.7C33.1992 145.3 34.1992 145.5 34.5992 146.2" fill="url(#paint5_linear_1_1754)"/>
<path d="M86.9992 113.4C86.4992 112.7 86.6992 111.7 87.3992 111.3L86.0992 109.1C85.3992 109.6 84.3992 109.3 83.9992 108.6C83.4992 107.9 83.7992 107 84.4992 106.5L83.0992 104.4C82.3992 104.8 81.4992 104.6 80.9992 103.9C80.5992 103.2 80.7992 102.2 81.4992 101.8L80.0992 99.6C79.7992 99.9 79.2992 99.9 78.8992 99.8L25.8992 133.1C25.7992 133.5 25.5992 133.8 25.1992 134.1L26.5992 136.2C27.2992 135.8 28.1992 136 28.6992 136.7C29.0992 137.4 28.8992 138.4 28.1992 138.8L29.4992 141C30.2992 140.5 31.1992 140.7 31.5992 141.4C32.0992 142.2 31.8992 143.1 31.1992 143.6L32.4992 145.7C33.1992 145.3 34.1992 145.5 34.5992 146.2" stroke="#433A3B" stroke-width="1.5" stroke-miterlimit="10"/>
<path d="M44.2997 135.7C43.633 135.567 43.0996 135.133 42.6996 134.4L40.0997 130.3C39.4997 129.433 39.2663 128.667 39.3996 128C39.4663 127.267 39.8663 126.667 40.5997 126.2C41.2663 125.8 41.8997 125.667 42.4997 125.8C43.1663 125.867 43.6997 126.267 44.0997 127L45.0997 128.5L43.2997 129.6L42.4997 128.3C42.2996 128.033 42.133 127.867 41.9997 127.8C41.933 127.733 41.7997 127.767 41.5997 127.9C41.4663 127.967 41.3996 128.067 41.3996 128.2C41.3996 128.4 41.4663 128.6 41.5997 128.8L44.3996 133.3C44.5996 133.5 44.7663 133.633 44.8996 133.7C45.033 133.767 45.1663 133.767 45.2997 133.7C45.5663 133.5 45.5663 133.2 45.2997 132.8L44.2997 131.1L46.0997 130L47.0997 131.7C48.033 133.167 47.7663 134.4 46.2997 135.4C45.633 135.8 44.9663 135.9 44.2997 135.7Z" fill="white"/>
<path fill-rule="evenodd" clip-rule="evenodd" d="M47.4994 131.3L45.5994 128.2C45.1327 127.467 44.9994 126.767 45.1994 126.1C45.3327 125.433 45.7327 124.867 46.3994 124.4C47.1327 124 47.8327 123.867 48.4994 124C49.166 124.2 49.7327 124.667 50.1994 125.4L52.0994 128.4C53.0994 130 52.8327 131.267 51.2994 132.2C49.766 133.133 48.4994 132.833 47.4994 131.3ZM50.5994 130.4C50.5994 130.267 50.566 130.1 50.4994 129.9L48.0994 126.2C47.8327 125.8 47.566 125.667 47.2994 125.8C47.0327 126 47.0327 126.333 47.2994 126.8L49.5994 130.5C49.7327 130.7 49.866 130.8 49.9994 130.8C50.1327 130.867 50.266 130.867 50.3994 130.8C50.5327 130.733 50.5994 130.6 50.5994 130.4Z" fill="white"/>
<path d="M54.2004 129.7C53.8004 129.433 53.4004 128.967 53.0004 128.3L49.4004 122.7L51.2004 121.5L54.6004 126.8C54.6004 126.867 54.6671 127 54.8004 127.2C54.9337 127.4 55.0671 127.533 55.2004 127.6C55.3337 127.667 55.4671 127.633 55.6004 127.5C55.8004 127.433 55.8671 127.3 55.8004 127.1C55.7337 126.9 55.6004 126.667 55.4004 126.4V126.3L52.1004 121L53.9004 119.9L58.7004 127.5L56.8004 128.6L56.3004 127.8C56.3671 128.2 56.3671 128.533 56.3004 128.8C56.2337 129 56.0337 129.2 55.7004 129.4C55.1671 129.8 54.6671 129.9 54.2004 129.7Z" fill="white"/>
<path fill-rule="evenodd" clip-rule="evenodd" d="M54.5996 119.4L56.4996 118.2L56.6996 118.6C56.7663 118.133 57.0329 117.767 57.4996 117.5C58.0996 117.1 58.6329 117.033 59.0996 117.3C59.5663 117.567 60.0329 118.033 60.4996 118.7L62.2996 121.5C62.6329 122.1 62.8996 122.633 63.0996 123.1C63.2329 123.5 63.2663 123.9 63.1996 124.3C63.1329 124.633 62.8329 124.967 62.2996 125.3C61.8329 125.567 61.4329 125.633 61.0996 125.5L62.1996 127.4L60.2996 128.5L54.5996 119.4ZM61.0996 123.8C61.0329 123.667 60.8996 123.433 60.6996 123.1L58.6996 119.9C58.4996 119.633 58.3329 119.433 58.1996 119.3C58.0663 119.233 57.9329 119.233 57.7996 119.3C57.4663 119.5 57.4663 119.867 57.7996 120.4L59.8996 123.7C60.0996 123.967 60.2663 124.167 60.3996 124.3C60.5329 124.367 60.6996 124.367 60.8996 124.3C61.0329 124.167 61.0996 124 61.0996 123.8Z" fill="white"/>
<path fill-rule="evenodd" clip-rule="evenodd" d="M63.0988 121.5L61.1987 118.5C60.7321 117.767 60.5654 117.067 60.6987 116.4C60.8321 115.667 61.2654 115.1 61.9987 114.7C62.6654 114.233 63.3654 114.1 64.0988 114.3C64.7654 114.433 65.2987 114.867 65.6987 115.6L67.6987 118.7C68.6321 120.233 68.3654 121.467 66.8987 122.4C65.3654 123.4 64.0988 123.1 63.0988 121.5ZM66.1987 120.7C66.1987 120.567 66.1321 120.4 65.9987 120.2L63.6987 116.5C63.4321 116.033 63.1654 115.9 62.8987 116.1C62.5654 116.233 62.5654 116.533 62.8987 117L65.1987 120.7C65.3321 120.9 65.4654 121.033 65.5988 121.1C65.7321 121.167 65.8654 121.133 65.9987 121C66.1321 120.933 66.1987 120.833 66.1987 120.7Z" fill="white"/>
<path d="M65 112.9L66.8 111.8L67.4 112.7C67.2667 112.367 67.2333 112.033 67.3 111.7C67.3667 111.367 67.5667 111.133 67.9 111C68.4333 110.667 68.9 110.567 69.3 110.7C69.7667 110.9 70.2 111.267 70.6 111.8L74.2 117.7L72.4 118.8L68.9 113.1C68.7667 112.967 68.6333 112.867 68.5 112.8C68.3667 112.733 68.2333 112.733 68.1 112.8C67.9 112.933 67.8333 113.1 67.9 113.3C67.9667 113.5 68.0667 113.733 68.2 114L71.6 119.4L69.8 120.5L65 112.9Z" fill="white"/>
<path d="M51.9001 143L56.1001 140.4L58.3001 143.8C58.1001 145.5 57.5001 147 55.9001 148C53.6001 149.4 50.4001 148.7 48.9001 146.2C47.4001 143.8 48.1001 140.7 50.4001 139.2C51.6001 138.4 53.1001 138.2 54.4001 138.6L53.5001 140.8C52.9001 140.667 52.3001 140.8 51.7001 141.2C50.4001 141.9 50.1001 143.6 51.0001 145C51.8001 146.3 53.5001 146.7 54.7001 146C55.2001 145.6 55.7001 145 55.9001 144.4L55.4001 143.6L53.1001 145L51.9001 143Z" fill="white"/>
<path fill-rule="evenodd" clip-rule="evenodd" d="M66.0993 135.4C67.6993 137.8 66.9993 141 64.5993 142.5C62.2993 143.9 59.0993 143.2 57.5993 140.8C56.0993 138.4 56.7993 135.2 59.0993 133.8C61.4993 132.3 64.5993 133 66.0993 135.4ZM64.0993 136.7C63.2993 135.4 61.5993 135 60.3993 135.7C59.1993 136.5 58.7993 138.2 59.6993 139.5C60.4993 140.8 62.1993 141.3 63.3993 140.5C64.5993 139.7 64.8993 138 64.0993 136.7Z" fill="white"/>
<path d="M71.6992 136.5C72.0992 137.2 71.8992 138.2 71.1992 138.6C70.4992 139 69.5992 138.8 69.1992 138.1C68.6992 137.4 68.8992 136.5 69.5992 136.1C70.2992 135.6 71.1992 135.8 71.6992 136.5ZM64.6992 130.4L66.6992 129.2L70.2992 135L68.3992 136.2L64.6992 130.4Z" fill="white"/>
<path d="M76.0992 128.2L71.4992 127.2L71.1992 128.5L75.7992 129.5L74.7992 134.2L76.0992 134.5L77.3992 128.5L76.0992 128.2Z" fill="white" stroke="white" stroke-width="0.5" stroke-miterlimit="10"/>
<path d="M79.5996 126.1L74.8996 125L74.5996 126.3L79.2996 127.4L78.1996 132L79.4996 132.3L80.8996 126.4L79.5996 126.1Z" fill="white" stroke="white" stroke-width="0.5" stroke-miterlimit="10"/>
<path d="M70.0996 122.8C69.6996 123.1 69.5996 123.7 69.7996 124.1C70.0996 124.5 70.6996 124.7 71.0996 124.4C71.5996 124.1 71.6996 123.5 71.3996 123.1C71.1996 122.7 70.5996 122.5 70.0996 122.8ZM67.2996 124.6C66.8996 124.8 66.7996 125.4 66.9996 125.9C67.2996 126.3 67.8996 126.4 68.2996 126.2C68.7996 125.9 68.8996 125.3 68.5996 124.9C68.3996 124.4 67.7996 124.3 67.2996 124.6ZM64.4996 126.3C64.0996 126.6 63.8996 127.2 64.1996 127.6C64.4996 128.1 65.0996 128.2 65.4996 127.9C65.9996 127.7 66.0996 127.1 65.7996 126.6C65.4996 126.2 64.9996 126.1 64.4996 126.3ZM61.6996 128.1C61.2996 128.4 61.0996 129 61.3996 129.4C61.6996 129.8 62.2996 130 62.6996 129.7C63.0996 129.4 63.2996 128.8 62.9996 128.4C62.6996 128 62.0996 127.8 61.6996 128.1ZM58.8996 129.9C58.3996 130.1 58.2996 130.7 58.5996 131.2C58.8996 131.6 59.3996 131.7 59.8996 131.5C60.2996 131.2 60.4996 130.6 60.1996 130.2C59.8996 129.7 59.2996 129.6 58.8996 129.9ZM56.0996 131.6C55.5996 131.9 55.4996 132.5 55.7996 132.9C55.9996 133.4 56.5996 133.5 57.0996 133.2C57.4996 133 57.5996 132.4 57.3996 131.9C57.0996 131.5 56.4996 131.4 56.0996 131.6Z" fill="white"/>
<path d="M54.5988 133.7C54.5322 133.633 54.4655 133.567 54.3988 133.5C54.3988 133.5 54.3655 133.467 54.2988 133.4C54.2322 133.4 54.1655 133.367 54.0988 133.3C54.0988 133.3 54.0655 133.3 53.9988 133.3C53.9322 133.3 53.8655 133.3 53.7988 133.3C53.7322 133.3 53.6655 133.3 53.5988 133.3C53.5322 133.3 53.4655 133.3 53.3988 133.3C53.3322 133.3 53.2655 133.333 53.1988 133.4C52.9988 133.533 52.8655 133.733 52.7988 134C52.7988 134.3 52.8988 134.6 53.0988 134.8C53.0988 134.867 53.1322 134.933 53.1988 135C53.2655 135 53.3322 135.033 53.3988 135.1C53.3988 135.1 53.4322 135.1 53.4988 135.1C53.7988 135.2 53.9988 135.1 54.2988 135C54.2988 134.933 54.3322 134.9 54.3988 134.9C54.4655 134.833 54.4988 134.767 54.4988 134.7C54.5655 134.7 54.5988 134.667 54.5988 134.6C54.5988 134.533 54.6322 134.467 54.6988 134.4C54.6988 134.333 54.6988 134.267 54.6988 134.2C54.6988 134.133 54.6988 134.067 54.6988 134C54.6988 133.933 54.6655 133.9 54.5988 133.9C54.5988 133.833 54.5988 133.767 54.5988 133.7Z" fill="white"/>
<path d="M84.198 114C83.798 114.3 83.598 114.8 83.898 115.3C84.198 115.7 84.798 115.9 85.198 115.6C85.698 115.3 85.798 114.7 85.498 114.3C85.198 113.8 84.698 113.7 84.198 114ZM81.398 115.7C80.998 116 80.7981 116.6 81.0981 117C81.3981 117.5 81.998 117.6 82.398 117.3C82.898 117.1 82.998 116.5 82.698 116C82.398 115.6 81.798 115.5 81.398 115.7ZM78.5981 117.5C78.0981 117.8 77.9981 118.4 78.2981 118.8C78.5981 119.3 79.1981 119.4 79.5981 119.1C79.9981 118.8 80.198 118.2 79.898 117.8C79.598 117.4 78.9981 117.2 78.5981 117.5ZM75.7981 119.3C75.2981 119.6 75.198 120.1 75.498 120.6C75.798 121 76.2981 121.2 76.7981 120.9C77.1981 120.6 77.3981 120 77.0981 119.6C76.7981 119.1 76.1981 119 75.7981 119.3ZM72.998 121C72.498 121.3 72.398 121.9 72.698 122.3C72.898 122.8 73.498 122.9 73.998 122.6C74.398 122.4 74.4981 121.8 74.2981 121.3C73.9981 120.9 73.398 120.8 72.998 121Z" fill="white"/>
<path d="M50.398 135.2C49.998 135.4 49.8981 136 50.0981 136.5C50.3981 136.9 50.998 137 51.398 136.8C51.898 136.5 51.998 135.9 51.698 135.5C51.498 135 50.898 134.9 50.398 135.2Z" fill="white"/>
<path d="M47.5987 136.9C47.1987 137.2 46.9987 137.8 47.2987 138.2C47.5987 138.7 48.1987 138.8 48.5987 138.5C49.0987 138.3 49.1987 137.7 48.8987 137.2C48.5987 136.8 48.0987 136.7 47.5987 136.9Z" fill="white"/>
<path d="M44.798 138.7C44.398 139 44.198 139.6 44.498 140C44.798 140.4 45.398 140.6 45.798 140.3C46.198 140 46.398 139.4 46.098 139C45.798 138.6 45.198 138.4 44.798 138.7Z" fill="white"/>
<path d="M41.998 140.5C41.498 140.7 41.398 141.3 41.698 141.8C41.998 142.2 42.498 142.3 42.998 142.1C43.398 141.8 43.5981 141.2 43.2981 140.8C42.9981 140.3 42.398 140.2 41.998 140.5Z" fill="white"/>
<path d="M39.1992 142.2C38.6992 142.5 38.5992 143.1 38.8992 143.5C39.0992 144 39.6992 144.1 40.1992 143.8C40.5992 143.6 40.6992 143 40.4992 142.5C40.1992 142.1 39.5992 142 39.1992 142.2Z" fill="white"/>
<path d="M36.3984 144C35.8984 144.3 35.7984 144.9 36.0984 145.3C36.2984 145.7 36.8984 145.9 37.3984 145.6C37.7984 145.3 37.8984 144.7 37.6984 144.3C37.3984 143.8 36.7984 143.7 36.3984 144Z" fill="white"/>
<defs>
<linearGradient id="paint0_linear_1_1754" x1="116.571" y1="4.825" x2="140.317" y2="4.825" gradientUnits="userSpaceOnUse">
<stop stop-color="#BD4C5E"/>
<stop offset="1" stop-color="#BB1C3D"/>
</linearGradient>
<linearGradient id="paint1_linear_1_1754" x1="104.424" y1="58.61" x2="110.972" y2="58.61" gradientUnits="userSpaceOnUse">
<stop stop-color="#BD4C5E"/>
<stop offset="1" stop-color="#BB1C3D"/>
</linearGradient>
<linearGradient id="paint2_linear_1_1754" x1="75.1581" y1="4.825" x2="98.9041" y2="4.825" gradientUnits="userSpaceOnUse">
<stop stop-color="#BD4C5E"/>
<stop offset="1" stop-color="#BB1C3D"/>
</linearGradient>
<linearGradient id="paint3_linear_1_1754" x1="122.35" y1="59.602" x2="134.151" y2="59.602" gradientUnits="userSpaceOnUse">
<stop stop-color="#BD4C5E"/>
<stop offset="1" stop-color="#BB1C3D"/>
</linearGradient>
<linearGradient id="paint4_linear_1_1754" x1="81.4054" y1="59.602" x2="93.2064" y2="59.602" gradientUnits="userSpaceOnUse">
<stop stop-color="#BD4C5E"/>
<stop offset="1" stop-color="#BB1C3D"/>
</linearGradient>
<linearGradient id="paint5_linear_1_1754" x1="24.9542" y1="133.657" x2="79.8841" y2="99.2168" gradientUnits="userSpaceOnUse">
<stop stop-color="#BD4C5E"/>
<stop offset="1" stop-color="#BB1C3D"/>
</linearGradient>
</defs>
</svg>
