<svg width="66" height="65" viewBox="0 0 66 65" fill="none" xmlns="http://www.w3.org/2000/svg">
<path d="M65.8008 32.5C65.8008 50.5 51.2008 65 33.3008 65C15.3008 65 0.800781 50.5 0.800781 32.5C0.800781 14.6 15.3008 0 33.3008 0C51.2008 0 65.8008 14.6 65.8008 32.5Z" fill="url(#paint0_linear_1_988)"/>
<path d="M38.4012 25.7C38.4012 28.5 36.1011 30.8 33.3011 30.8C30.5011 30.8 28.2012 28.5 28.2012 25.7C28.2012 22.9 30.5011 20.6 33.3011 20.6C36.1011 20.6 38.4012 22.9 38.4012 25.7Z" fill="#FBFBFC"/>
<path d="M43.6004 44.4C43.6004 44.2 43.7004 44 43.7004 43.8C43.7004 38.1 39.0004 33.4 33.3004 33.4C27.5004 33.4 22.9004 38.1 22.9004 43.8C22.9004 44 22.9004 44.2 22.9004 44.4H43.6004Z" fill="#FBFBFC"/>
<defs>
<linearGradient id="paint0_linear_1_988" x1="0.759781" y1="0.00899917" x2="65.7678" y2="0.00899917" gradientUnits="userSpaceOnUse">
<stop stop-color="#BD4C5E"/>
<stop offset="1" stop-color="#B91D3D"/>
</linearGradient>
</defs>
</svg>
