<svg width="81" height="81" viewBox="0 0 81 81" fill="none" xmlns="http://www.w3.org/2000/svg">
<path d="M59.5 80.5001H21.1C9.70001 80.5001 0.5 71.2 0.5 59.8V21.5001C0.5 10.1001 9.70001 0.800049 21.1 0.800049H59.5C70.9 0.800049 80.2 10.1001 80.2 21.5001V59.8C80.2 71.2 70.9 80.5001 59.5 80.5001Z" fill="white"/>
<path d="M26.5996 62.5001V38.1L26.8996 38.0001C27.4996 39.3001 28.7996 40.2001 30.3996 40.2001C32.3996 40.2001 34.0996 38.5001 34.0996 36.5001C34.0996 38.5001 35.8996 40.2001 37.8996 40.2001C39.9996 40.2001 41.6996 38.5001 41.6996 36.5001C41.6996 38.5001 43.3996 40.2001 45.4996 40.2001C47.4996 40.2001 49.2996 38.5001 49.2996 36.5001V32.7001L56.6996 23.1L59.9996 18.8L60.9996 62.5001H26.5996Z" fill="white"/>
<path d="M33 48.7001H39.5V54.1H33V48.7001Z" fill="#E87988"/>
<path d="M26.5996 48.7001H32.9996V54.1H26.5996V48.7001Z" fill="#E87988"/>
<path d="M55.4988 51.9001V62.5001H44.7988V51.9001C44.7988 48.9001 47.1989 46.5001 50.1989 46.5001C51.6989 46.5001 52.9988 47.1001 53.9988 48.0001C54.8988 49.0001 55.4988 50.4001 55.4988 51.9001Z" fill="#E87988"/>
<path d="M59.8 18.9001L56.6 23.2001H26.5L29.7 18.9001H59.8Z" fill="white"/>
<path d="M56.6 23.2001L49.1 32.7001H41.6H34H26.6H19L26.5 23.2001H56.6Z" fill="#E87988"/>
<path d="M49.1 32.7001V36.5001C49.1 38.5001 47.4 40.2001 45.3 40.2001C43.2 40.2001 41.5 38.5001 41.5 36.5001V32.7001H49.1Z" fill="#E87988"/>
<path d="M34 32.7001V36.5001C34 38.5001 32.3 40.2001 30.3 40.2001C28.7 40.2001 27.4 39.3001 26.8 38.0001C26.7 37.6001 26.5 37.0001 26.5 36.5001V32.7001H34Z" fill="#E87988"/>
<path d="M41.6 32.7001V36.5001C41.6 38.5001 39.9 40.2001 37.8 40.2001C35.8 40.2001 34 38.5001 34 36.5001V32.7001H41.6Z" fill="white"/>
<path d="M26.6 32.7001V36.5001C26.6 38.5001 24.8 40.2001 22.8 40.2001C20.7 40.2001 19 38.5001 19 36.5001V32.7001H26.6Z" fill="white"/>
<path d="M22.8 41.2001C20.1 41.2001 18 39.1001 18 36.5001V32.7001C18 32.1001 18.5 31.6 19.1 31.6C19.7 31.6 20.2 32.1001 20.2 32.7001V36.5001C20.2 37.9001 21.4 39.1 22.9 39.1C24.3 39.1 25.5 37.9001 25.5 36.5001C25.5 35.9001 26.1 35.3 26.7 35.3C27.3 35.3 27.8 35.9001 27.8 36.5001C27.6 39.1001 25.5 41.2001 22.8 41.2001Z" fill="#B70B33"/>
<path d="M30.3 41.2001C28.4 41.2001 26.7 40.1001 25.9 38.4001C25.6 37.8001 25.5 37.1001 25.5 36.5001V32.7001C25.5 32.1001 26 31.6 26.6 31.6C27.2 31.6 27.6 32.1001 27.6 32.7001V36.5001C27.6 36.8001 27.7 37.2 27.9 37.6C28.3 38.5 29.2 39.1 30.3 39.1C31.7 39.1 32.9 37.9001 32.9 36.5001C32.9 35.9001 33.4 35.3 34 35.3C34.7 35.3 35.2 35.9001 35.2 36.5001C35.2 39.1001 32.9 41.2001 30.3 41.2001Z" fill="#B70B33"/>
<path d="M37.8 41.2001C35.2 41.2001 33 39.1001 33 36.5001V32.7001C33 32.1001 33.5 31.6 34.1 31.6C34.7 31.6 35.3 32.1001 35.3 32.7001V36.5001C35.3 37.9001 36.5 39.1 37.9 39.1C39.4 39.1 40.6 37.9001 40.6 36.5001C40.6 35.9001 41.1 35.3 41.7 35.3C42.3 35.3 42.8 35.9001 42.8 36.5001C42.6 39.1001 40.5 41.2001 37.8 41.2001Z" fill="#B70B33"/>
<path d="M45.3 41.2001C42.6 41.2001 40.5 39.1001 40.5 36.5001V32.7001C40.5 32.1001 41 31.6 41.6 31.6C42.2 31.6 42.7 32.1001 42.7 32.7001V36.5001C42.7 37.9001 43.9 39.1 45.4 39.1C46.9 39.1 48.1 37.9001 48.1 36.5001V32.7001C48.1 32.1001 48.6 31.6 49.2 31.6C49.8 31.6 50.3 32.1001 50.3 32.7001V36.5001C50.2 39.1001 48 41.2001 45.3 41.2001Z" fill="#B70B33"/>
<path d="M26.6 49.7001C26 49.7001 25.5 49.2 25.5 48.6V38.1C25.5 37.5 26 37.0001 26.6 37.0001C27.2 37.0001 27.7 37.5 27.7 38.1V48.7001C27.6 49.2001 27.1 49.7001 26.6 49.7001Z" fill="#B70B33"/>
<path d="M44.8 63.6H26.6C26 63.6 25.5 63.1001 25.5 62.5001V54.0001C25.5 53.4001 26 52.9001 26.6 52.9001C27.2 52.9001 27.6 53.4001 27.6 54.0001V61.5001H44.8C45.4 61.5001 45.9 62 45.9 62.6C45.9 63.1 45.4 63.6 44.8 63.6Z" fill="#B70B33"/>
<path d="M60.9984 63.6H55.4984C54.8984 63.6 54.3984 63.1001 54.3984 62.5001C54.3984 61.9001 54.8984 61.4001 55.4984 61.4001H59.7984L58.7984 18.8C58.7984 18.2 59.1984 17.7001 59.7984 17.7001C60.3984 17.7001 60.9984 18.1001 60.9984 18.7001L61.9984 62.5001C61.9984 62.8001 61.8984 63.1 61.5984 63.3C61.4984 63.4 61.1984 63.6 60.9984 63.6Z" fill="#B70B33"/>
<path fill-rule="evenodd" clip-rule="evenodd" d="M55.4992 63.6H44.7992C44.1992 63.6 43.6992 63.1001 43.6992 62.5001V51.9001C43.6992 48.4001 46.5992 45.5001 50.0992 45.5001C51.7992 45.5001 53.4992 46.2 54.6992 47.3C55.8992 48.5 56.5992 50.2001 56.5992 51.9001V62.5001C56.6992 63.1001 56.0992 63.6 55.4992 63.6ZM45.8992 61.5001H54.4992V51.9001C54.4992 50.8001 54.0992 49.6001 53.1992 48.9001C52.3992 48.1001 51.2992 47.6 50.1992 47.6C47.7992 47.6 45.8992 49.5001 45.8992 51.9001V61.5001Z" fill="#B70B33"/>
<path d="M33 55.1H26.6C26 55.1 25.5 54.6001 25.5 54.0001V48.6C25.5 48 26 47.5001 26.6 47.5001H33C33.6 47.5001 34.1 48 34.1 48.6C34.1 49.2 33.5 49.7001 33 49.7001H27.6V53.0001H33C33.6 53.0001 34.1 53.5 34.1 54.1C34 54.6 33.5 55.1 33 55.1Z" fill="#B70B33"/>
<path fill-rule="evenodd" clip-rule="evenodd" d="M39.4984 55.1H32.9984C32.3984 55.1 31.8984 54.6001 31.8984 54.0001V48.6C31.8984 48 32.3984 47.5001 32.9984 47.5001H39.4984C40.0984 47.5001 40.5984 48 40.5984 48.6V54.0001C40.4984 54.6001 39.9984 55.1 39.4984 55.1ZM33.9984 53.0001H38.2984V49.7001H33.9984V53.0001Z" fill="#B70B33"/>
<path d="M49.0984 56.1H47.9984C47.3984 56.1 46.8984 55.6001 46.8984 55.0001C46.8984 54.4001 47.3984 53.9001 47.9984 53.9001H49.0984C49.6984 53.9001 50.1985 54.4001 50.1985 55.0001C50.1985 55.6001 49.6984 56.1 49.0984 56.1Z" fill="#B70B33"/>
<path fill-rule="evenodd" clip-rule="evenodd" d="M49.0992 33.8H18.9992C18.5992 33.8 18.1992 33.6001 18.0992 33.2001C17.8992 32.9001 17.8992 32.4 18.0992 32.1L25.5992 22.5001C25.7992 22.2001 26.0992 22.1 26.4992 22.1H56.5992C56.9992 22.1 57.2992 22.3001 57.4992 22.7001C57.6992 23.0001 57.6992 23.4 57.3992 23.8L49.9992 33.4001C49.7992 33.6001 49.3992 33.8 49.0992 33.8ZM21.1992 31.7001H48.4992L54.2992 24.2001H26.9992L21.1992 31.7001Z" fill="#B70B33"/>
<path d="M26.4983 24.2001C26.1983 24.2001 26.0982 24.1001 25.7982 23.9001C25.3982 23.6001 25.2983 22.9001 25.5983 22.4001L28.8983 18.1C29.0983 17.9 29.3983 17.7001 29.6983 17.7001H59.7982C60.2982 17.7001 60.5982 18 60.7982 18.3C60.9982 18.7 60.9983 19.1001 60.6983 19.4001L57.3983 23.7001C57.0983 24.1001 56.3983 24.2001 55.8983 23.9001C55.4983 23.5001 55.3983 22.8 55.6983 22.3L57.6983 19.8H30.2982L27.2982 23.6C27.0982 24 26.6983 24.2001 26.4983 24.2001Z" fill="#B70B33"/>
</svg>
