<svg width="81" height="81" viewBox="0 0 81 81" fill="none" xmlns="http://www.w3.org/2000/svg">
<path d="M59.5004 80.5001H21.1004C9.70039 80.5001 0.400391 71.2001 0.400391 59.8V21.5001C0.400391 10.1001 9.70039 0.800049 21.1004 0.800049H59.5004C70.9004 0.800049 80.1004 10.1001 80.1004 21.5001V59.8C80.1004 71.2001 70.9004 80.5001 59.5004 80.5001Z" fill="white"/>
<path d="M20.3 50.6C22.2 50.6 23.8 52.1001 23.8 53.9001C23.8 55.9001 22.2 57.4001 20.3 57.4001C18.5 57.4001 17 55.9001 17 53.9001C17 52.1001 18.5 50.6 20.3 50.6ZM20.3 24.0001C22.2 24.0001 23.8 25.6 23.8 27.6C23.8 29.3 22.2 30.9001 20.3 30.9001C18.5 30.9001 17 29.3 17 27.6C17 25.6 18.5 24.0001 20.3 24.0001ZM20.3 37.0001C22.2 37.0001 23.8 38.6001 23.8 40.5001C23.8 42.3001 22.2 43.9001 20.3 43.9001C18.5 43.9001 17 42.3001 17 40.5001C17 38.6001 18.5 37.0001 20.3 37.0001Z" fill="#F99D9E" stroke="#C82739" stroke-width="2.8" stroke-miterlimit="10"/>
<path d="M33.9004 24.4001H60.9004C62.6004 24.4001 63.9004 25.8001 63.9004 27.5001C63.9004 29.1001 62.6004 30.5001 60.9004 30.5001H33.9004C32.2004 30.5001 30.9004 29.1001 30.9004 27.5001C30.9004 25.8001 32.2004 24.4001 33.9004 24.4001Z" fill="#F99D9E" stroke="#C82739" stroke-width="2.8" stroke-miterlimit="10"/>
<path d="M33.9004 50.9001H60.9004C62.6004 50.9001 63.9004 52.3001 63.9004 54.0001C63.9004 55.7001 62.6004 57.0001 60.9004 57.0001H33.9004C32.2004 57.0001 30.9004 55.7001 30.9004 54.0001C30.9004 52.3001 32.2004 50.9001 33.9004 50.9001Z" fill="#F99D9E" stroke="#C82739" stroke-width="2.8" stroke-miterlimit="10"/>
<path d="M33.9004 37.4001H60.9004C62.6004 37.4001 63.9004 38.8001 63.9004 40.4001C63.9004 42.1001 62.6004 43.5001 60.9004 43.5001H33.9004C32.2004 43.5001 30.9004 42.1001 30.9004 40.4001C30.9004 38.8001 32.2004 37.4001 33.9004 37.4001Z" fill="#F99D9E" stroke="#C82739" stroke-width="2.8" stroke-miterlimit="10"/>
</svg>
