<svg width="80" height="81" viewBox="0 0 80 81" fill="none" xmlns="http://www.w3.org/2000/svg">
<path d="M59.1016 80.5001H20.7016C9.30155 80.5001 0.101562 71.2001 0.101562 59.8V21.5001C0.101562 10.1001 9.30155 0.800049 20.7016 0.800049H59.1016C70.5016 0.800049 79.7016 10.1001 79.7016 21.5001V59.8C79.7016 71.2001 70.5016 80.5001 59.1016 80.5001Z" fill="white"/>
<path d="M56.1016 23.3001C47.1016 14.4001 32.5016 14.4001 23.6016 23.3001C14.6016 32.2001 14.6016 46.6001 23.6016 55.5001C31.4016 63.3001 43.3016 64.2 52.2016 58.6C53.6016 57.7 54.9016 56.7001 56.1016 55.5001C57.3016 54.3001 58.3016 53.1001 59.2016 51.8001C65.0016 43.0001 63.9016 31.0001 56.1016 23.3001Z" fill="white"/>
<path d="M51.1024 36.8001C51.5024 37.2001 51.4024 37.9001 51.0024 38.3001L50.2024 39.2001C49.8024 39.6001 49.1024 39.7001 48.6024 39.3001L47.6024 38.6001C47.3024 38.5001 47.1024 38.2001 47.1024 37.9001L46.5024 35.8001C46.4024 35.5001 46.5024 35.2001 46.6024 34.9001L47.3024 33.6001C47.8024 32.8001 49.1024 32.9001 49.5024 33.7001L50.1024 35.1001C50.1024 35.2001 50.2024 35.2001 50.2024 35.4001L51.1024 36.8001Z" fill="#F99D9E"/>
<path d="M52.1016 42.3L56.1016 39.9001C55.9016 48.6001 48.6016 55.5001 39.9016 55.5001C37.2016 55.5001 34.6016 54.8 32.3016 53.6V53.5001L34.3016 48.0001C34.3016 47.9001 34.4016 47.8001 34.6016 47.7001L35.5016 46.8C36.0016 46.4 35.9016 45.7001 35.3016 45.4001L33.0016 44.6C32.9016 44.6 32.8016 44.5001 32.7016 44.4001L30.9016 42.4001C30.8016 42.3001 30.7016 42.2001 30.5016 42.2001L29.1016 41.7001C28.5016 41.4334 28.0349 41.0667 27.7016 40.6C27.3016 40.2 27.1016 39.6001 27.1016 39.0001C27.1016 38.3001 27.3016 37.6 27.8016 37.1L31.2016 33.6C31.4016 33.5 31.6016 33.4001 31.8016 33.4001L32.8016 33.3C33.3016 33.3 33.6016 32.8001 33.6016 32.4001V31.6C33.6016 31.4 33.7016 31.1001 33.8016 31.0001L34.3016 30.6C34.4016 30.4 34.6016 30.2001 34.6016 30.0001V29.3C34.6016 28.9 34.8016 28.6001 35.1016 28.4001L35.6016 28.3C35.7016 28.3 35.7016 28.3 35.9016 28.3C36.2016 28.3 36.5016 28.6 36.7016 28.8C36.9016 29.3 37.5016 29.4001 38.0016 29.2001L40.8016 27.0001C41.1016 26.8001 41.2016 26.5 41.2016 26.1L40.6016 23.6C43.1016 23.8 45.4016 24.3001 47.6016 25.4001V25.6L45.2016 27.4001C45.0016 27.5001 44.9016 27.7001 44.9016 27.9001L44.6016 29.2001C44.6016 29.5001 44.3015 29.7001 43.9016 29.7001L42.5016 29.9001C42.3016 29.9001 42.0016 30.0001 41.9016 30.2001L41.1016 31.7001C40.8016 32.2001 41.1016 32.7 41.5016 32.8C41.9016 32.9 42.1016 33.1001 42.1016 33.5001C42.1016 33.6001 42.1016 33.7 42.0016 33.8L41.3016 34.9001C40.4016 36.3001 40.4016 38.1001 41.4016 39.5001L43.1016 41.7001C43.2016 41.8001 43.2016 41.8001 43.3016 41.9001L46.5016 43.2001C46.7016 43.3001 47.0016 43.7001 47.0016 43.9001L46.6016 47.2001C46.6016 47.7001 46.7016 48.1001 47.1016 48.4001C47.3016 48.6001 47.7016 48.7001 48.1016 48.7001C48.6016 48.7001 49.4016 48.3 49.5016 47.6L52.1016 42.3Z" fill="#F99D9E"/>
<path fill-rule="evenodd" clip-rule="evenodd" d="M56.1032 39.5001C56.1032 39.6001 56.1032 39.8001 56.1032 39.9001L52.1032 42.3L49.1032 47.3C49.0032 48 48.4032 48.5001 47.7032 48.5001C47.3032 48.5001 47.0032 48.4 46.7032 48.1C46.4032 47.8 46.3032 47.4001 46.3032 47.0001L46.6032 43.7001C46.6032 43.3001 46.5032 43.1001 46.2032 43.0001L43.1032 41.6C43.0032 41.6 42.8032 41.5 42.8032 41.3L41.2032 39.1C40.1032 37.8 40.1032 35.9001 41.1032 34.5001L41.8032 33.5001C41.9032 33.4001 41.9032 33.3 41.9032 33.1C41.9032 32.8 41.7032 32.6001 41.3032 32.4001C40.8032 32.3001 40.6032 31.8001 40.8032 31.4001L41.8032 29.9001C41.9032 29.6001 42.1032 29.5001 42.4032 29.5001L43.8032 29.4001C44.1032 29.4001 44.4032 29.2 44.5032 28.8L44.7032 27.5001C44.7032 27.3001 44.9032 27.2001 45.1032 27.0001L47.5032 25.3V25.1C52.5032 27.7 56.1032 33.1001 56.1032 39.5001ZM51.0032 38.3C51.4032 37.9 51.5032 37.2 51.1032 36.8L50.2032 35.5001C50.2032 35.4001 50.1032 35.4001 50.1032 35.2001L49.5032 33.8C49.1032 32.9 47.8032 32.8001 47.3032 33.7001L46.6032 35.0001C46.5032 35.2001 46.5032 35.6 46.5032 35.8L47.0032 37.9001C47.1032 38.2001 47.2032 38.5 47.5032 38.6L48.5032 39.3C49.0032 39.7 49.7032 39.6001 50.1032 39.2001L51.0032 38.3Z" fill="white"/>
<path d="M23.6016 39.5001C23.6016 30.6001 30.9016 23.3 39.9016 23.3C40.0016 23.3 40.2015 23.3 40.4016 23.3L40.9016 25.8C41.1016 26.1 40.9016 26.5001 40.6016 26.7001L37.8016 28.8C37.3016 29.2 36.7016 29.0001 36.5016 28.4001C36.3016 28.1001 36.0016 28.0001 35.6016 28.0001C35.5016 28.0001 35.5016 28.0001 35.4016 28.0001L34.9016 28.1C34.6016 28.2 34.3016 28.6001 34.3016 28.9001V29.6C34.3016 29.9 34.2016 30.1001 34.1016 30.2001L33.6016 30.7001C33.5016 30.8001 33.4016 31 33.4016 31.3V32.1C33.4016 32.6 33.0016 32.9001 32.5016 32.9001L31.6016 33.0001C31.4016 33.0001 31.2016 33.1 31.0016 33.3L27.6016 36.8C27.1016 37.2 26.9016 37.9 26.9016 38.6C26.9016 39.2 27.1016 39.8 27.5016 40.3C27.8349 40.7667 28.3016 41.1 28.9016 41.3L30.3016 41.8C30.4016 41.8 30.5016 41.9001 30.7016 42.0001L32.4016 44.0001C32.5016 44.2001 32.7016 44.3 32.8016 44.3L35.0016 45.1C35.6016 45.3 35.9016 46.1001 35.3016 46.5001L34.3016 47.3C34.2016 47.4 34.1016 47.6001 34.1016 47.7001L32.3016 53.6V53.8C27.1016 50.9 23.6016 45.6001 23.6016 39.5001Z" fill="white"/>
<path d="M32.3031 55.1C32.2031 55.1 32.0031 55.1001 31.8031 54.9001C31.1031 54.7001 30.7031 53.8 31.0031 53.1L33.0031 47.6C33.1031 47.2 33.4031 46.8 33.6031 46.6L33.8031 46.4001L32.5031 45.9001C32.2031 45.8001 31.8031 45.6 31.6031 45.3L29.9031 43.4001L28.6031 43.1C27.8031 42.9 27.0031 42.3 26.5031 41.6C25.9031 40.9 25.7031 39.9 25.7031 39.1C25.7031 38.1 26.2031 37 26.9031 36.2L30.3031 32.7C30.7031 32.3 31.2031 32 31.7031 32H32.1031V31.7C32.1031 31.1 32.3031 30.6 32.7031 30.1L32.9031 29.9001V29.4001C32.8031 28.3001 33.5031 27.4 34.6031 27L35.0031 26.9001C35.9031 26.7001 36.8031 26.9 37.4031 27.5L39.4031 26L38.9031 23.9001C38.7031 23.1001 39.2031 22.4 40.0031 22.1C40.8031 21.9 41.5031 22.4 41.8031 23.2L42.4031 25.6C42.6031 26.6 42.3031 27.5 41.5031 28.1L38.7031 30.2C38.1031 30.7 37.4031 30.8 36.7031 30.7C36.3031 30.6 36.1031 30.4 35.9031 30.3C35.9031 30.9 35.6031 31.4 35.3031 31.7L35.0031 32V32.4001C35.0031 33.6001 34.1031 34.7 32.9031 34.8L32.2031 34.9001L28.9031 38.3C28.6031 38.5 28.5031 38.9 28.5031 39.2C28.5031 39.5 28.6031 39.8001 28.8031 39.9001C28.9031 40.2001 29.1031 40.3001 29.5031 40.4001L30.9031 40.9001C31.2365 40.9667 31.6031 41.2 32.0031 41.6L33.6031 43.4001L35.7031 44.2C36.6031 44.4 37.0031 45.1001 37.3031 45.9001C37.4031 46.7001 37.2031 47.6 36.6031 48L35.7031 48.6L33.7031 54C33.5031 54.7 32.9031 55.1 32.3031 55.1Z" fill="#C82739"/>
<path d="M47.8019 49.9001C47.1019 49.9001 46.4019 49.7001 45.9019 49.2001C45.2019 48.6001 44.9019 47.7001 45.0019 46.7001L45.2019 44.0001L42.6019 42.9001C42.3019 42.7001 41.9019 42.5001 41.8019 42.2001L40.1019 39.9001C38.7019 38.1001 38.7019 35.6001 40.0019 33.7001L40.2019 33.4001C40.0019 33.1001 39.8019 32.9001 39.6019 32.7001C39.4019 32.1001 39.4019 31.3001 39.8019 30.7001L40.6019 29.2001C40.9019 28.4001 41.7019 28.1001 42.4019 28.0001H43.2019L43.3019 27.3001C43.4019 26.7001 43.8019 26.1001 44.3019 25.8001L46.5019 24.1001C47.2019 23.6001 48.1019 23.8001 48.5019 24.5001C49.0019 25.2001 48.9019 26.0001 48.2019 26.5001L46.0019 28.0001L45.9019 28.9001C45.8019 30.0001 45.0019 30.7001 43.9019 30.8001L42.8019 30.9001L42.6019 31.4001C43.1019 31.7001 43.4019 32.4001 43.4019 33.1001C43.4019 33.6001 43.3019 34.0001 43.1019 34.4001L42.4019 35.5001C41.8019 36.3001 41.8019 37.5001 42.5019 38.3001L44.0019 40.3001L47.0019 41.6001C47.9019 41.9001 48.4019 42.9001 48.3019 43.8001L47.9019 46.6001L50.9019 41.6001C51.0019 41.3001 51.2019 41.1001 51.5019 41.0001L55.5019 38.6001C55.5019 38.6001 55.5019 38.6001 55.6019 38.6001C56.3019 38.3001 57.3019 38.5001 57.6019 39.3001C58.0019 40.1001 57.8019 40.9001 57.0019 41.3001L53.4019 43.4001L50.8019 48.0001C50.2019 49.1001 49.1019 49.9001 47.8019 49.9001Z" fill="#C82739"/>
<path fill-rule="evenodd" clip-rule="evenodd" d="M49.4026 41.0001C48.8026 41.0001 48.3026 40.9001 47.8026 40.5001L46.7026 39.8C46.2026 39.5 45.8026 38.9 45.7026 38.3L45.2026 36.2001C45.1026 35.5001 45.1027 34.8001 45.6027 34.2001L46.3026 32.9001C46.7026 32.1001 47.6027 31.6 48.6027 31.6C49.7027 31.6 50.8027 32.3 51.1027 33.3L51.7026 34.7001L52.5026 35.9001C53.3026 37.0001 53.1026 38.4 52.2026 39.3L51.2026 40.3C50.7026 40.8 50.1026 41.0001 49.4026 41.0001ZM48.5026 37.5001L49.4026 37.9001L49.9026 37.4001L49.1027 36.2001C49.0027 36.1001 48.9026 35.8001 48.9026 35.7001L48.5026 34.8L48.1027 35.5001L48.5026 37.5001Z" fill="#C82739"/>
<path fill-rule="evenodd" clip-rule="evenodd" d="M39.9016 57.0001C37.0016 57.0001 34.1016 56.3 31.6016 55.1C25.8016 52 22.1016 46.0001 22.1016 39.5001C22.1016 29.7001 30.1016 21.9001 39.9016 21.9001C40.0016 21.9001 40.2015 21.9001 40.4016 21.9001C43.0016 22.0001 45.6016 22.6 47.9016 23.8C53.8015 26.8 57.6016 32.8001 57.6016 39.5001C57.6016 39.7001 57.6016 39.8 57.6016 40.1C57.5016 44.6 55.6016 49 52.3016 52.1C48.9016 55.3 44.5016 57.0001 39.9016 57.0001ZM39.9016 24.8C31.7016 24.8 25.1016 31.4001 25.1016 39.5001C25.1016 44.9001 28.2016 49.9001 33.0016 52.5001C35.1016 53.5001 37.5016 54.1 39.9016 54.1C47.9016 54.1 54.4016 47.9001 54.7016 39.9001C54.7016 39.8001 54.7016 39.6001 54.7016 39.5001C54.7016 34.0001 51.6016 28.9001 46.6016 26.5001C44.6016 25.5001 42.5016 24.9 40.4016 24.8C40.1016 24.8 40.0016 24.8 39.9016 24.8Z" fill="#C82739"/>
<path fill-rule="evenodd" clip-rule="evenodd" d="M39.9023 63.6C33.4023 63.6 27.2023 61.0001 22.6023 56.5001C13.0023 47.0001 13.0023 31.6001 22.6023 22.2001C27.2023 17.7001 33.4023 15.1 39.9023 15.1C46.4023 15.1 52.5023 17.7001 57.2023 22.2001C61.2023 26.2001 63.7023 31.4001 64.3023 36.9001C64.9023 42.4001 63.4023 47.9001 60.5023 52.5001C59.5023 54.0001 58.3023 55.4 57.2023 56.6C55.9023 57.9 54.6023 58.9001 53.0023 59.9001C49.1023 62.3001 44.5023 63.6 39.9023 63.6ZM39.9023 18.1C34.1023 18.1 28.8023 20.4 24.6023 24.3C16.2023 32.7 16.2023 46.1001 24.6023 54.5001C28.6023 58.4001 34.1023 60.7001 39.8023 60.7001C43.9023 60.7001 47.9023 59.5 51.4023 57.3C52.7023 56.5 53.8023 55.5 55.0023 54.3C56.069 53.3 57.0357 52.1334 57.9023 50.8C63.3023 42.5 62.1023 31.3001 55.0023 24.2001C51.0023 20.4001 45.6023 18.1 39.9023 18.1Z" fill="#C82739"/>
</svg>
