<svg width="80" height="81" viewBox="0 0 80 81" fill="none" xmlns="http://www.w3.org/2000/svg">
<path d="M59.3008 80.5001H20.9008C9.50079 80.5001 0.300781 71.2001 0.300781 59.8V21.5001C0.300781 10.1001 9.50079 0.800049 20.9008 0.800049H59.3008C70.7008 0.800049 79.9008 10.1001 79.9008 21.5001V59.8C79.9008 71.2001 70.7008 80.5001 59.3008 80.5001Z" fill="white"/>
<path d="M46.8016 21.1C39.4016 13.7 27.4016 13.7 19.9016 21.1C12.5016 28.4 12.5016 40.3001 19.9016 47.7001C26.4016 54.1001 36.3016 54.9001 43.6016 50.2001C44.8016 49.5001 45.8016 48.7001 46.8016 47.7001C47.8016 46.7001 48.7016 45.7 49.4016 44.6C54.2016 37.3 53.3016 27.5 46.8016 21.1Z" fill="white"/>
<path d="M64.1016 59.6C64.1016 61.1 63.5016 62.4001 62.5016 63.5001C60.1016 65.8001 56.3016 65.6 54.2016 63.1L49.6016 57.5001L56.5016 50.7001L62.1016 55.5001C63.4016 56.5001 64.1016 58.1 64.1016 59.6Z" fill="#F09499"/>
<path d="M53.8008 48.3L56.5008 50.7001L49.6008 57.6L47.3008 54.7001L53.8008 48.3Z" fill="white"/>
<path d="M49.4016 44.6L53.7016 48.3L47.2016 54.7001L43.6016 50.2001C44.8016 49.5001 45.8015 48.7001 46.8015 47.7001C47.8015 46.7001 48.7016 45.7 49.4016 44.6Z" fill="#F09499"/>
<path d="M31.1016 31.4001H36.0016V44.8H31.1016V31.4001Z" fill="#F09499"/>
<path d="M36.002 31.4001H42.102V44.8H36.002V31.4001Z" fill="white"/>
<path d="M25.002 31.4001H31.202V44.8H25.002V31.4001Z" fill="white"/>
<path d="M44.6016 26.6V31.4001H42.1016H36.0016H31.1016H25.0016H22.6016V26.6H33.6016H44.6016Z" fill="white"/>
<path fill-rule="evenodd" clip-rule="evenodd" d="M33.4012 54.4001C28.0012 54.4001 23.0012 52.3001 19.2012 48.5001C11.2012 40.6001 11.2012 28.0001 19.2012 20.2001C23.0012 16.4001 28.0012 14.3 33.4012 14.3C38.8012 14.3 43.9012 16.4001 47.7012 20.2001C51.0012 23.5001 53.1012 27.8 53.6012 32.3C54.1012 36.9 52.9012 41.4001 50.4012 45.2001C49.7012 46.4001 48.7012 47.6 47.7012 48.6C46.6012 49.6 45.6011 50.5 44.3011 51.3C41.1011 53.3 37.2012 54.4001 33.4012 54.4001ZM33.4012 16.8C28.6012 16.8 24.2011 18.7001 20.8011 21.9001C13.9011 28.8001 13.9011 40 20.8011 46.8C24.1011 50.1 28.6011 52.0001 33.3011 52.0001C36.8011 52.0001 40.1012 51.0001 42.9012 49.2001C44.0012 48.5001 45.0012 47.7001 45.9012 46.7001C46.8345 45.8334 47.6345 44.8667 48.3011 43.8C52.8011 37 51.8012 27.7001 45.9012 21.9001C42.6012 18.7001 38.1012 16.8 33.4012 16.8Z" fill="#BF2038"/>
<path d="M63 54.4001L58.4 50.5001L56.6 52.2001L61.3 56.2001C62.3 57.1001 62.9 58.3001 62.9 59.5001C62.9 60.7001 62.4 61.8 61.6 62.6C60.7 63.5 59.5 64.0001 58.3 63.9001C57.1 63.9001 55.9 63.3 55.1 62.3L51.3 57.6L49.5 59.3L53.2 63.9001C54.4 65.4001 56.1 66.3001 58.1 66.4001C58.3 66.4001 58.4 66.4001 58.5 66.4001C60.3 66.4001 62.1 65.7 63.4 64.3C64.6 63 65.3 61.4001 65.3 59.5001C65.3 57.5001 64.4 55.6001 63 54.4001Z" fill="#BF2038"/>
<path d="M54.7004 50.6L56.5004 48.9001L55.7004 48.2001L53.9004 49.9001L54.7004 50.6Z" fill="#BF2038"/>
<path d="M50.2006 43.5001C49.7006 43.1001 48.9006 43.2 48.5006 43.6C48.0006 44.2 48.1006 45.0001 48.6006 45.4001L52.0006 48.3001L53.8006 46.5001L50.2006 43.5001Z" fill="#BF2038"/>
<path d="M44.7007 49.4001C44.2007 48.9001 43.4006 48.9001 42.9006 49.3001C42.3006 49.7001 42.3007 50.5001 42.7007 51.0001L45.6007 54.6001L47.4006 52.8001L44.7007 49.4001Z" fill="#BF2038"/>
<path d="M49.0012 54.8L47.2012 56.5001L47.9012 57.4001L49.7012 55.6L49.0012 54.8Z" fill="#BF2038"/>
<path d="M53.9004 49.9001L52.0004 48.3L47.4004 52.8L49.0004 54.8L53.9004 49.9001Z" fill="#BF2038"/>
<path d="M47.4016 52.8L45.6016 54.6L47.2016 56.5001L49.0016 54.8L47.4016 52.8Z" fill="#BF2038"/>
<path d="M55.7 48.2001L53.8 46.5001L52 48.3L53.9 49.9001L55.7 48.2001Z" fill="#BF2038"/>
<path d="M49.7012 55.6L51.3011 57.6L56.6012 52.2001L54.7012 50.6L49.7012 55.6Z" fill="#BF2038"/>
<path d="M49.7004 55.6L47.9004 57.4001L49.5004 59.3L51.3004 57.6L49.7004 55.6Z" fill="#BF2038"/>
<path d="M56.6012 52.2001L58.4012 50.5001L56.5012 48.9001L54.7012 50.6L56.6012 52.2001Z" fill="#BF2038"/>
<path d="M31.1016 46.0001H24.9016C24.2016 46.0001 23.6016 45.4001 23.6016 44.7001V31.4001C23.6016 30.8001 24.2016 30.2001 24.9016 30.2001C25.6016 30.2001 26.2016 30.8001 26.2016 31.4001V43.5001H31.1016C31.8016 43.5001 32.4016 44.1 32.4016 44.8C32.4016 45.5 31.8016 46.0001 31.1016 46.0001Z" fill="#BF2038"/>
<path d="M42.1012 46.0001H36.0012C35.3012 46.0001 34.7012 45.4001 34.7012 44.7001C34.7012 44.0001 35.3012 43.4001 36.0012 43.4001H40.9012V31.4001C40.9012 30.8001 41.4012 30.2001 42.1012 30.2001C42.8012 30.2001 43.4012 30.8001 43.4012 31.4001V44.8C43.3012 45.5 42.7012 46.0001 42.1012 46.0001Z" fill="#BF2038"/>
<path d="M44.6012 32.7001H36.0012C35.3012 32.7001 34.7012 32.1001 34.7012 31.4001C34.7012 30.8001 35.3012 30.2001 36.0012 30.2001H43.3011V27.8H23.7012V30.2001H31.1012C31.8012 30.2001 32.4012 30.8001 32.4012 31.4001C32.4012 32.1001 31.8012 32.7001 31.1012 32.7001H22.5012C21.8012 32.7001 21.2012 32.1001 21.2012 31.4001V26.6C21.2012 25.9 21.8012 25.3 22.5012 25.3H44.5012C45.2012 25.3 45.7012 25.9 45.7012 26.6V31.4001C45.7012 32.1001 45.2012 32.7001 44.6012 32.7001Z" fill="#BF2038"/>
<path fill-rule="evenodd" clip-rule="evenodd" d="M36.0008 46.0001H31.1008C30.4008 46.0001 29.8008 45.4001 29.8008 44.7001V31.4001C29.8008 30.8001 30.4008 30.2001 31.1008 30.2001H36.0008C36.7008 30.2001 37.2008 30.8001 37.2008 31.4001V44.8C37.2008 45.5 36.7008 46.0001 36.0008 46.0001ZM32.4008 43.5001H34.8008V32.7001H32.4008V43.5001Z" fill="#BF2038"/>
<path fill-rule="evenodd" clip-rule="evenodd" d="M33.6009 27.9001C33.3009 27.9001 33.0009 27.8001 32.7009 27.5001C32.4342 27.1667 32.3342 26.7667 32.4009 26.3C32.5009 25.9 32.5009 25.4001 32.6009 24.9001C32.7009 23.6001 32.9009 22.2001 33.7009 21.4001C34.4009 20.7001 35.3009 20.3 36.3009 20.3C37.2009 20.3 38.1009 20.7001 38.8009 21.4001C39.5009 22.0001 39.9009 22.9001 39.9009 23.9001C39.9009 24.9001 39.5009 25.7001 38.8009 26.4001C37.9009 27.3001 36.6009 27.4 35.3009 27.6C34.8009 27.7 34.3009 27.7 33.9009 27.8C33.8009 27.9 33.7009 27.9001 33.6009 27.9001ZM36.3009 22.9001C36.0009 22.9001 35.7009 23.0001 35.5009 23.2001C35.2009 23.5001 35.1009 24.5 35.1009 25.1C35.8009 25 36.9009 25 37.1009 24.8C37.3009 24.6 37.4009 24.3001 37.4009 24.0001C37.4009 23.7001 37.3009 23.4001 37.1009 23.2001C36.8342 23.0001 36.5675 22.9001 36.3009 22.9001Z" fill="#BF2038"/>
<path fill-rule="evenodd" clip-rule="evenodd" d="M33.6004 27.9001C33.5337 27.9001 33.4337 27.9001 33.3004 27.9001C32.9004 27.8001 32.4004 27.8001 32.0004 27.7001C30.7004 27.6001 29.3004 27.4001 28.4004 26.5001C27.8004 25.8001 27.4004 25.0001 27.4004 24.0001C27.4004 23.0001 27.8004 22.1001 28.4004 21.5001C29.1004 20.8001 30.0004 20.4001 31.0004 20.4001C32.0004 20.4001 32.8004 20.8001 33.5004 21.5001C34.4004 22.3001 34.5004 23.6001 34.6004 25.0001C34.7004 25.4001 34.7004 26.0001 34.8004 26.4001C34.9004 26.8001 34.8004 27.3 34.5004 27.6C34.3004 27.8 33.9004 27.9001 33.6004 27.9001ZM31.0004 22.9001C30.7004 22.9001 30.4004 23.0001 30.2004 23.2001C30.0004 23.4001 29.9004 23.7001 29.9004 24.0001C29.9004 24.3001 30.0004 24.6 30.2004 24.8C30.5004 25 31.5004 25.1 32.3004 25.1C32.2004 24.5 32.1004 23.4001 31.9004 23.2001C31.5671 23.0001 31.2671 22.9001 31.0004 22.9001Z" fill="#BF2038"/>
</svg>
